<?xml version="1.0" encoding="UTF-8" standalone="no"?>
<!-- Created with Inkscape (http://www.inkscape.org/) -->

<svg
   xmlns:dc="http://purl.org/dc/elements/1.1/"
   xmlns:cc="http://creativecommons.org/ns#"
   xmlns:rdf="http://www.w3.org/1999/02/22-rdf-syntax-ns#"
   xmlns:svg="http://www.w3.org/2000/svg"
   xmlns="http://www.w3.org/2000/svg"
   xmlns:xlink="http://www.w3.org/1999/xlink"
   xmlns:sodipodi="http://sodipodi.sourceforge.net/DTD/sodipodi-0.dtd"
   xmlns:inkscape="http://www.inkscape.org/namespaces/inkscape"
   width="210mm"
   height="297mm"
   viewBox="0 0 210 297"
   version="1.1"
   id="svg8"
   inkscape:version="0.92.4 (e05b578f1, 2019-02-26, custom)"
   sodipodi:docname="meter.svg">
  <defs
     id="defs2">
    <filter
       inkscape:collect="always"
       id="filter5822">
      <feGaussianBlur
         inkscape:collect="always"
         stdDeviation="0.10794278"
         id="feGaussianBlur5824" />
    </filter>
    <linearGradient
       inkscape:collect="always"
       id="linearGradient5798">
      <stop
         offset="0"
         style="stop-color:#000000"
         id="stop5800" />
      <stop
         offset="1"
         style="stop-color:#000000;stop-opacity:0"
         id="stop5802" />
    </linearGradient>
    <filter
       inkscape:collect="always"
       id="filter5890">
      <feGaussianBlur
         inkscape:collect="always"
         stdDeviation="0.29366271"
         id="feGaussianBlur5892" />
    </filter>
    <filter
       inkscape:collect="always"
       id="filter4419">
      <feGaussianBlur
         inkscape:collect="always"
         stdDeviation="0.28512898"
         id="feGaussianBlur4421" />
    </filter>
    <radialGradient
       inkscape:collect="always"
       r="87.572"
       gradientTransform="matrix(0.37756043,0,0,0.3772297,9.2862128,27.765953)"
       cx="255.71"
       cy="320.93"
       gradientUnits="userSpaceOnUse"
       spreadMethod="reflect"
       id="radialGradient3533">
      <stop
         offset="0"
         style="stop-color:#000000"
         id="stop5896" />
      <stop
         offset=".5"
         style="stop-color:#000000;stop-opacity:.49804"
         id="stop5902" />
      <stop
         offset="1"
         style="stop-color:#000000;stop-opacity:.58929"
         id="stop5898" />
    </radialGradient>
    <radialGradient
       inkscape:collect="always"
       r="10.794"
       gradientTransform="translate(56.865,258.43)"
       cx="290.06"
       cy="40.79"
       gradientUnits="userSpaceOnUse"
       spreadMethod="repeat"
       xlink:href="#linearGradient5798"
       id="radialGradient3535" />
    <radialGradient
       inkscape:collect="always"
       r="10.794"
       gradientTransform="translate(-69.128,258.43)"
       cx="290.06"
       cy="40.79"
       gradientUnits="userSpaceOnUse"
       spreadMethod="repeat"
       xlink:href="#linearGradient5798"
       id="radialGradient3537" />
  </defs>
  <sodipodi:namedview
     id="base"
     pagecolor="#ffffff"
     bordercolor="#666666"
     borderopacity="1.0"
     inkscape:pageopacity="0.0"
     inkscape:pageshadow="2"
     inkscape:zoom="2.8"
     inkscape:cx="362.20199"
     inkscape:cy="532.42188"
     inkscape:document-units="mm"
     inkscape:current-layer="layer1"
     showgrid="false"
     inkscape:window-width="1366"
     inkscape:window-height="705"
     inkscape:window-x="-8"
     inkscape:window-y="-8"
     inkscape:window-maximized="1" />
  <metadata
     id="metadata5">
    <rdf:RDF>
      <cc:Work
         rdf:about="">
        <dc:format>image/svg+xml</dc:format>
        <dc:type
           rdf:resource="http://purl.org/dc/dcmitype/StillImage" />
        <dc:title></dc:title>
      </cc:Work>
    </rdf:RDF>
  </metadata>
  <g
     inkscape:label="Layer 1"
     inkscape:groupmode="layer"
     id="layer1">
    <path
       d="m 145.31512,148.834 c 0,21.79373 -17.68739,39.48112 -39.48112,39.48112 -21.795056,0 -39.482452,-17.68739 -39.482452,-39.48112 0,-21.79505 17.687396,-39.48245 39.482452,-39.48245 21.79373,1.3e-4 39.48112,17.6874 39.48112,39.48245 z"
       style="fill:#1c1d1f;fill-rule:evenodd;stroke:#000000;stroke-width:0.41134772;stroke-linecap:square"
       id="path2383"
       inkscape:connector-curvature="0" />
    <path
       d="m 138.73493,148.834 c 0,18.161 -14.73993,32.90094 -32.90093,32.90094 -18.162327,0 -32.902265,-14.73994 -32.902265,-32.90094 0,-18.16233 14.739938,-32.90226 32.902265,-32.90226 18.161,0 32.90093,14.73993 32.90093,32.90226 z"
       style="fill:#353736;fill-rule:evenodd;stroke:url(#radialGradient3533);stroke-width:0.29397854;stroke-linecap:square"
       id="path2638"
       inkscape:connector-curvature="0" />
    <path
       d="m 84.900163,140.12656 1.112573,-1.16814 4.853781,4.6236 -1.112573,1.16813 z"
       style="fill:#ffffff;fill-rule:evenodd;stroke:#000000;stroke-width:0.24546719;stroke-linecap:square"
       id="rect3332"
       inkscape:connector-curvature="0" />
    <path
       d="m 127.90554,140.12656 -1.11257,-1.16814 -4.85379,4.6236 1.11258,1.16813 z"
       style="fill:#ffffff;fill-rule:evenodd;stroke:#000000;stroke-width:0.24546719;stroke-linecap:square"
       id="rect3334"
       inkscape:connector-curvature="0" />
    <path
       d="m 101.48822,150.21645 h -1.01733 l -0.40349,-1.05172 h -1.850758 l -0.382323,1.05172 h -0.990864 l 1.803135,-4.63021 h 0.988219 z m -1.72112,-1.83224 -0.637645,-1.71715 -0.62574,1.71715 z m 2.20795,1.83224 v -4.63021 h 1.39832 l 0.84005,3.15912 0.8308,-3.15912 h 1.40229 v 4.63021 h -0.86916 v -3.64464 l -0.9181,3.64464 h -0.90091 l -0.91546,-3.64464 v 3.64464 z m 5.40676,0 v -4.63021 h 1.49886 c 0.56886,0 0.93927,0.0238 1.11258,0.0701 0.26458,0.0688 0.48683,0.22093 0.66542,0.45244 0.17992,0.23283 0.26856,0.53313 0.26856,0.90223 0,0.28443 -0.0516,0.52255 -0.15479,0.71702 -0.10318,0.19315 -0.23415,0.34528 -0.3929,0.45641 -0.15875,0.1098 -0.32015,0.18388 -0.48419,0.2196 -0.22357,0.0437 -0.54636,0.0661 -0.9697,0.0661 h -0.60986 v 1.74625 z m 0.93398,-3.84705 v 1.31366 h 0.51197 c 0.36777,0 0.61515,-0.0238 0.73818,-0.0714 0.12436,-0.0489 0.22225,-0.12435 0.29237,-0.22754 0.0714,-0.10319 0.10583,-0.22357 0.10583,-0.35983 0,-0.16934 -0.049,-0.30824 -0.14816,-0.41804 -0.0992,-0.10848 -0.22358,-0.17727 -0.37571,-0.20506 -0.11113,-0.0212 -0.33602,-0.0317 -0.67337,-0.0317 z m 3.14854,2.34024 0.91017,-0.0886 c 0.0542,0.30559 0.16536,0.53049 0.33205,0.67336 0.16801,0.14288 0.39423,0.21432 0.67733,0.21432 0.30163,0 0.52917,-0.0635 0.6813,-0.1905 0.15214,-0.12833 0.22887,-0.27649 0.22887,-0.44715 0,-0.1098 -0.0318,-0.20241 -0.0966,-0.27914 -0.0635,-0.0767 -0.17595,-0.14419 -0.33603,-0.20108 -0.1098,-0.0384 -0.35851,-0.10451 -0.74877,-0.20241 -0.50138,-0.12435 -0.85195,-0.27649 -1.05436,-0.45772 -0.28443,-0.254 -0.42598,-0.56489 -0.42598,-0.93134 0,-0.23548 0.0662,-0.4564 0.19976,-0.66146 0.13362,-0.20505 0.32676,-0.36115 0.57812,-0.46963 0.25135,-0.10716 0.55562,-0.16007 0.91148,-0.16007 0.58077,0 1.01865,0.127 1.31234,0.38232 0.29369,0.254 0.44714,0.59399 0.4617,1.01997 l -0.93398,0.041 c -0.0397,-0.23813 -0.12568,-0.41011 -0.25797,-0.51329 -0.13097,-0.10451 -0.32809,-0.15611 -0.59135,-0.15611 -0.27252,0 -0.48418,0.0556 -0.63896,0.16669 -0.0979,0.0714 -0.14817,0.16801 -0.14817,0.28707 0,0.1098 0.0463,0.20373 0.13891,0.28178 0.11773,0.0992 0.40481,0.20241 0.85989,0.30957 0.45376,0.10715 0.79111,0.21828 1.00806,0.33337 0.21829,0.11377 0.38894,0.2712 0.51197,0.46964 0.12303,0.19976 0.18521,0.4445 0.18521,0.73818 0,0.26459 -0.0741,0.5133 -0.22225,0.74481 -0.14684,0.23151 -0.35454,0.40349 -0.62442,0.51593 -0.26987,0.11245 -0.60589,0.16934 -1.00806,0.16934 -0.58473,0 -1.03452,-0.13494 -1.34805,-0.40614 -0.31353,-0.26987 -0.50139,-0.6641 -0.56224,-1.18269 z"
       style="fill:#ffffff;stroke-width:0.13229167"
       id="flowRoot3340"
       inkscape:connector-curvature="0" />
    <path
       d="m 119.8503,149.52191 v -1.20385 h -1.21312 v -0.83079 h 1.21312 v -1.20253 h 0.8083 v 1.20253 h 1.21576 v 0.83079 h -1.21576 v 1.20385 z"
       style="fill:#ffffff;stroke-width:0.13229167"
       id="flowRoot3356"
       inkscape:connector-curvature="0" />
    <path
       d="m 89.792309,148.34716 v -0.88767 h 3.641989 v 0.88767 z"
       style="fill:#ffffff;stroke-width:0.13229167"
       id="flowRoot3366"
       inkscape:connector-curvature="0" />
    <path
       d="m 117.28516,132.99736 -1.44991,-0.70511 -2.93423,6.02721 1.44991,0.70511 z"
       style="fill:#ffffff;fill-rule:evenodd;stroke:#000000;stroke-width:0.24546719;stroke-linecap:square"
       id="rect3336"
       inkscape:connector-curvature="0" />
    <path
       d="m 94.381507,132.99736 1.449916,-0.70511 2.93423,6.02721 -1.449917,0.70511 z"
       style="fill:#ffffff;fill-rule:evenodd;stroke:#000000;stroke-width:0.24546719;stroke-linecap:square"
       id="rect3338"
       inkscape:connector-curvature="0" />
    <path
       d="m 104.53357,130.93229 h 2.59953 v 5.96371 h -2.59953 z"
       style="fill:#ffffff;fill-rule:evenodd;stroke:#000000;stroke-width:0.29397854;stroke-linecap:square"
       id="rect3330"
       inkscape:connector-curvature="0" />
    <path
       d="m 105.25059,132.32267 -1.23164,27.54181 3.62877,0.009 -1.23958,-27.55107 z"
       style="fill:#c83e30;fill-rule:evenodd;stroke-width:0.13229167"
       id="path5655"
       inkscape:connector-curvature="0"
       inkscape:transform-center-y="-14.079613"
       inkscape:label="{&quot;attr&quot;:&quot;rotate&quot;,&quot;max&quot;:100,&quot;min&quot;:0,&quot;tag&quot;:&quot;TAG1&quot;}" />
    <path
       d="m 129.27343,142.78695 -0.85857,0.0939 c -0.0212,-0.17595 -0.0754,-0.30691 -0.16404,-0.39158 -0.0886,-0.0833 -0.20373,-0.12568 -0.34396,-0.12568 -0.18785,0 -0.3466,0.0847 -0.47625,0.25268 -0.12832,0.16801 -0.21034,0.51858 -0.24474,1.05172 0.22225,-0.26062 0.4961,-0.39159 0.82418,-0.39159 0.37174,0 0.68792,0.14023 0.9525,0.42334 0.26458,0.28178 0.39687,0.64558 0.39687,1.09273 0,0.4736 -0.1389,0.85328 -0.41671,1.13903 -0.27782,0.28707 -0.635,0.42995 -1.07157,0.42995 -0.46699,0 -0.85063,-0.18124 -1.15226,-0.54505 -0.3003,-0.36247 -0.45111,-0.95779 -0.45111,-1.78593 0,-0.84799 0.1561,-1.45918 0.46963,-1.83489 0.31486,-0.37438 0.72232,-0.56091 1.22238,-0.56091 0.35189,0 0.64294,0.0979 0.87312,0.29501 0.23151,0.19711 0.37836,0.48286 0.44053,0.85725 z m -2.01083,1.93542 c 0,0.2884 0.0661,0.51197 0.19844,0.66808 0.13229,0.15742 0.28443,0.23547 0.45508,0.23547 0.16404,0 0.3003,-0.0648 0.41011,-0.19314 0.1098,-0.12832 0.16404,-0.33867 0.16404,-0.63103 0,-0.30163 -0.0582,-0.52123 -0.17595,-0.66146 -0.11774,-0.14023 -0.26591,-0.21034 -0.44318,-0.21034 -0.16933,0 -0.31353,0.0675 -0.43259,0.20108 -0.11774,0.13361 -0.17595,0.33073 -0.17595,0.59134 z m 4.10501,-3.08768 c 0.44847,0 0.79904,0.16007 1.05172,0.47889 0.30163,0.37968 0.45112,1.00806 0.45112,1.88648 0,0.87577 -0.15082,1.50416 -0.45377,1.8878 -0.25135,0.31618 -0.6006,0.47361 -1.04907,0.47361 -0.45111,0 -0.81359,-0.17331 -1.09008,-0.51991 -0.27517,-0.34528 -0.41275,-0.96308 -0.41275,-1.85208 0,-0.87048 0.15081,-1.49887 0.45376,-1.88119 0.25135,-0.31618 0.6006,-0.4736 1.04907,-0.4736 z m 0,0.73554 c -0.10715,0 -0.20373,0.0344 -0.28707,0.10186 -0.0847,0.0688 -0.14949,0.19182 -0.19579,0.36777 -0.0609,0.23019 -0.0913,0.61648 -0.0913,1.1602 0,0.5424 0.0264,0.91546 0.082,1.11919 0.0542,0.2024 0.12303,0.33866 0.20637,0.40613 0.0833,0.0661 0.1786,0.10054 0.28575,0.10054 0.10716,0 0.20373,-0.0344 0.28707,-0.10318 0.0847,-0.0675 0.14949,-0.1905 0.1958,-0.36777 0.0608,-0.22755 0.0913,-0.61251 0.0913,-1.15491 0,-0.54372 -0.0265,-0.91678 -0.082,-1.12051 -0.0542,-0.20241 -0.12303,-0.33867 -0.20638,-0.40746 -0.0833,-0.0675 -0.17859,-0.10186 -0.28575,-0.10186 z"
       style="fill:#ffffff;stroke-width:0.13229167"
       id="flowRoot5701"
       inkscape:connector-curvature="0" />
    <path
       d="m 82.992517,142.78695 -0.858573,0.0939 c -0.02117,-0.17595 -0.07673,-0.30691 -0.164042,-0.39158 -0.08864,-0.0833 -0.203729,-0.12568 -0.345281,-0.12568 -0.186531,0 -0.345281,0.0847 -0.474927,0.25268 -0.129646,0.16801 -0.210344,0.51858 -0.24474,1.05172 0.220927,-0.26062 0.496094,-0.39159 0.824177,-0.39159 0.370417,0 0.687917,0.14023 0.9525,0.42334 0.264584,0.28178 0.395552,0.64558 0.395552,1.09273 0,0.4736 -0.138906,0.85328 -0.416718,1.13903 -0.277813,0.28707 -0.633677,0.42995 -1.07024,0.42995 -0.46699,0 -0.851958,-0.18124 -1.15226,-0.54505 -0.301625,-0.36247 -0.452438,-0.95779 -0.452438,-1.78593 0,-0.84799 0.157427,-1.45918 0.470958,-1.83489 0.313532,-0.37438 0.72099,-0.56091 1.222375,-0.56091 0.351896,0 0.642938,0.0979 0.873125,0.29501 0.230188,0.19711 0.377032,0.48286 0.440532,0.85725 z m -2.012157,1.93542 c 0,0.2884 0.06747,0.51197 0.199761,0.66808 0.132292,0.15742 0.284427,0.23547 0.455083,0.23547 0.164042,0 0.300302,-0.0648 0.410104,-0.19314 0.109802,-0.12832 0.164042,-0.33867 0.164042,-0.63103 0,-0.30163 -0.05953,-0.52123 -0.177271,-0.66146 -0.117739,-0.14023 -0.264583,-0.21034 -0.441854,-0.21034 -0.170656,0 -0.314854,0.0675 -0.432594,0.20108 -0.117739,0.13361 -0.177271,0.33073 -0.177271,0.59134 z m 4.106334,-3.08768 c 0.448469,0 0.799042,0.16007 1.051719,0.47889 0.300302,0.37968 0.451114,1.00806 0.451114,1.88648 0,0.87577 -0.152135,1.50416 -0.455083,1.8878 -0.250031,0.31618 -0.599281,0.47361 -1.04775,0.47361 -0.451115,0 -0.813594,-0.17331 -1.090084,-0.51991 -0.275166,-0.34528 -0.414072,-0.96308 -0.414072,-1.85208 0,-0.87048 0.152135,-1.49887 0.455083,-1.88119 0.251354,-0.31618 0.600604,-0.4736 1.049073,-0.4736 z m 0,0.73554 c -0.107156,0 -0.203729,0.0344 -0.288396,0.10186 -0.08334,0.0688 -0.14949,0.19182 -0.195792,0.36777 -0.06085,0.23019 -0.09128,0.61648 -0.09128,1.1602 0,0.5424 0.02778,0.91546 0.08202,1.11919 0.05556,0.2024 0.124354,0.33866 0.207698,0.40613 0.08334,0.0661 0.178594,0.10054 0.28575,0.10054 0.107156,0 0.202406,-0.0344 0.287073,-0.10318 0.08467,-0.0675 0.149489,-0.1905 0.195791,-0.36777 0.06086,-0.22755 0.09128,-0.61251 0.09128,-1.15491 0,-0.54372 -0.02778,-0.91678 -0.08202,-1.12051 -0.05424,-0.20241 -0.123031,-0.33867 -0.206375,-0.40746 -0.08334,-0.0675 -0.178594,-0.10186 -0.285749,-0.10186 z"
       style="fill:#ffffff;stroke-width:0.13229167"
       id="flowRoot5711"
       inkscape:connector-curvature="0" />
    <path
       d="m 105.834,124.20129 c 0.44847,0 0.79904,0.16007 1.05039,0.48022 0.30163,0.37835 0.45244,1.00674 0.45244,1.88515 0,0.87577 -0.15214,1.50548 -0.45508,1.88913 -0.25003,0.31485 -0.59928,0.4736 -1.04775,0.4736 -0.45112,0 -0.81492,-0.1733 -1.09009,-0.5199 -0.27516,-0.34661 -0.41407,-0.96441 -0.41407,-1.85209 0,-0.8718 0.15214,-1.49886 0.45508,-1.88251 0.25003,-0.31617 0.60061,-0.4736 1.04908,-0.4736 z m 0,0.73554 c -0.10848,0 -0.20373,0.0344 -0.2884,0.10319 -0.0833,0.0688 -0.14949,0.1905 -0.19579,0.36777 -0.0609,0.22886 -0.0913,0.61516 -0.0913,1.15887 0,0.54372 0.0278,0.91679 0.082,1.11919 0.0556,0.20373 0.12435,0.33867 0.2077,0.40614 0.082,0.0675 0.17727,0.10054 0.28575,0.10054 0.10715,0 0.2024,-0.0331 0.28707,-0.10187 0.0833,-0.0688 0.14949,-0.19182 0.19579,-0.36777 0.0609,-0.22754 0.0913,-0.61251 0.0913,-1.15623 0,-0.54371 -0.0278,-0.91678 -0.082,-1.11918 -0.0542,-0.20373 -0.12435,-0.33867 -0.20637,-0.40746 -0.0833,-0.0688 -0.1786,-0.10319 -0.28575,-0.10319 z"
       style="fill:#ffffff;stroke-width:0.13229167"
       id="flowRoot5681"
       inkscape:connector-curvature="0" />
    <path
       d="m 115.95299,130.38328 0.85857,-0.10451 c 0.0278,0.2196 0.10054,0.38629 0.22093,0.50271 0.12038,0.11509 0.2659,0.1733 0.43656,0.1733 0.18256,0 0.33734,-0.0701 0.4617,-0.20902 0.12567,-0.13891 0.18785,-0.32544 0.18785,-0.56224 0,-0.22225 -0.0595,-0.39952 -0.17992,-0.53049 -0.11906,-0.12965 -0.2659,-0.19579 -0.43788,-0.19579 -0.11377,0 -0.25003,0.0225 -0.40746,0.0675 l 0.0979,-0.72364 c 0.23944,0.007 0.42201,-0.0463 0.54901,-0.1561 0.12567,-0.11113 0.18917,-0.25797 0.18917,-0.44054 0,-0.1561 -0.0463,-0.28045 -0.1389,-0.37306 -0.0926,-0.0926 -0.21564,-0.1389 -0.3691,-0.1389 -0.15213,0 -0.28178,0.0529 -0.38893,0.15742 -0.10716,0.10584 -0.17198,0.25929 -0.1958,0.4617 l -0.81756,-0.13891 c 0.0569,-0.28045 0.14288,-0.50403 0.25665,-0.67071 0.11509,-0.16801 0.27516,-0.29898 0.48022,-0.39556 0.20505,-0.0952 0.43524,-0.14287 0.69056,-0.14287 0.43524,0 0.78581,0.13891 1.04775,0.41672 0.21696,0.22754 0.32544,0.48419 0.32544,0.76994 0,0.40613 -0.22225,0.73025 -0.66543,0.97234 0.26458,0.0569 0.47757,0.18521 0.63632,0.38232 0.15875,0.19844 0.23813,0.43656 0.23813,0.71702 0,0.40614 -0.14817,0.75274 -0.44583,1.03849 -0.29633,0.28708 -0.66542,0.42995 -1.1086,0.42995 -0.41804,0 -0.76597,-0.12039 -1.04113,-0.36116 -0.27649,-0.24077 -0.43657,-0.55694 -0.48022,-0.94588 z m 5.13159,-3.41974 c 0.44847,0 0.79904,0.16007 1.05172,0.47889 0.3003,0.37968 0.45111,1.00807 0.45111,1.88648 0,0.87577 -0.15081,1.50416 -0.45508,1.88781 -0.25003,0.31617 -0.59928,0.4736 -1.04775,0.4736 -0.45111,0 -0.81359,-0.1733 -1.09008,-0.51991 -0.27517,-0.34528 -0.41275,-0.96308 -0.41275,-1.85208 0,-0.87048 0.15081,-1.49886 0.45376,-1.88119 0.25135,-0.31617 0.6006,-0.4736 1.04907,-0.4736 z m 0,0.73554 c -0.10716,0 -0.20373,0.0344 -0.28707,0.10187 -0.0847,0.0688 -0.14949,0.19182 -0.19579,0.36777 -0.0609,0.23018 -0.0926,0.61648 -0.0926,1.16019 0,0.5424 0.0278,0.91546 0.0833,1.11919 0.0542,0.20241 0.12303,0.33867 0.20637,0.40614 0.0833,0.0661 0.17859,0.10054 0.28575,0.10054 0.10716,0 0.20241,-0.0344 0.28707,-0.10319 0.0847,-0.0675 0.14949,-0.1905 0.19579,-0.36777 0.0609,-0.22754 0.0913,-0.61251 0.0913,-1.15491 0,-0.54371 -0.0265,-0.91678 -0.082,-1.12051 -0.0542,-0.2024 -0.12304,-0.33866 -0.20638,-0.40745 -0.0833,-0.0675 -0.17859,-0.10187 -0.28575,-0.10187 z"
       style="fill:#ffffff;stroke-width:0.13229167"
       id="flowRoot5691"
       inkscape:connector-curvature="0" />
    <path
       d="m 89.079256,130.38328 0.858573,-0.10451 c 0.02778,0.2196 0.101865,0.38629 0.220927,0.50271 0.120386,0.11509 0.265907,0.1733 0.436563,0.1733 0.182563,0 0.337344,-0.0701 0.461698,-0.20902 0.125677,-0.13891 0.189177,-0.32544 0.189177,-0.56224 0,-0.22225 -0.06085,-0.39952 -0.18124,-0.53049 -0.119062,-0.12965 -0.265906,-0.19579 -0.437885,-0.19579 -0.113771,0 -0.250031,0.0225 -0.407458,0.0675 l 0.09789,-0.72364 c 0.239448,0.007 0.423334,-0.0463 0.549011,-0.1561 0.127,-0.11113 0.189177,-0.25797 0.189177,-0.44054 0,-0.1561 -0.0463,-0.28045 -0.138906,-0.37306 -0.0926,-0.0926 -0.215636,-0.1389 -0.369094,-0.1389 -0.152135,0 -0.281781,0.0529 -0.388938,0.15742 -0.107156,0.10584 -0.171979,0.25929 -0.195791,0.4617 l -0.817563,-0.13891 c 0.05689,-0.28045 0.142875,-0.50403 0.257969,-0.67071 0.113771,-0.16801 0.273844,-0.29898 0.478896,-0.39556 0.206375,-0.0952 0.435239,-0.14287 0.690562,-0.14287 0.43524,0 0.785813,0.13891 1.049073,0.41672 0.216959,0.22754 0.324115,0.48419 0.324115,0.76994 0,0.40613 -0.220927,0.73025 -0.665427,0.97234 0.264583,0.0569 0.477573,0.18521 0.636323,0.38232 0.15875,0.19844 0.238125,0.43656 0.238125,0.71702 0,0.40614 -0.148167,0.75274 -0.445823,1.03849 -0.296333,0.28708 -0.665427,0.42995 -1.107281,0.42995 -0.419365,0 -0.767292,-0.12039 -1.042459,-0.36116 -0.276489,-0.24077 -0.436562,-0.55694 -0.480219,-0.94588 z m 5.131594,-3.41974 c 0.448469,0 0.799042,0.16007 1.051719,0.47889 0.301625,0.37968 0.451115,1.00807 0.451115,1.88648 0,0.87577 -0.150813,1.50416 -0.453761,1.88781 -0.251354,0.31617 -0.600604,0.4736 -1.049073,0.4736 -0.451114,0 -0.813593,-0.1733 -1.090083,-0.51991 -0.275167,-0.34528 -0.41275,-0.96308 -0.41275,-1.85208 0,-0.87048 0.150812,-1.49886 0.455083,-1.88119 0.250032,-0.31617 0.599282,-0.4736 1.04775,-0.4736 z m 0,0.73554 c -0.107156,0 -0.203729,0.0344 -0.287073,0.10187 -0.08467,0.0688 -0.149489,0.19182 -0.195791,0.36777 -0.06085,0.23018 -0.09128,0.61648 -0.09128,1.16019 0,0.5424 0.02646,0.91546 0.08202,1.11919 0.05424,0.20241 0.123032,0.33867 0.206375,0.40614 0.08334,0.0661 0.178594,0.10054 0.28575,0.10054 0.107157,0 0.20373,-0.0344 0.287073,-0.10319 0.08467,-0.0675 0.14949,-0.1905 0.195792,-0.36777 0.06085,-0.22754 0.0926,-0.61251 0.0926,-1.15491 0,-0.54371 -0.02778,-0.91678 -0.08334,-1.12051 -0.05424,-0.2024 -0.123031,-0.33866 -0.206375,-0.40745 -0.08334,-0.0675 -0.178593,-0.10187 -0.285751,-0.10187 z"
       style="fill:#ffffff;stroke-width:0.13229167"
       id="flowRoot5719"
       inkscape:connector-curvature="0" />
    <path
       d="m 111.14815,132.14937 1.15359,0.44583 -1.1946,3.08504 -1.15226,-0.44715 z"
       style="fill:#ffffff;fill-rule:evenodd;stroke:#000000;stroke-width:0.26574752;stroke-linecap:square"
       id="rect5735"
       inkscape:connector-curvature="0" />
    <path
       d="m 100.51852,132.14937 -1.153586,0.44583 1.194596,3.08504 1.15358,-0.44715 z"
       style="fill:#ffffff;fill-rule:evenodd;stroke:#000000;stroke-width:0.26574752;stroke-linecap:square"
       id="rect5737"
       inkscape:connector-curvature="0" />
    <path
       d="m 91.669527,136.56659 -0.931333,0.8136 2.174875,2.49237 0.931333,-0.81359 z"
       style="fill:#ffffff;fill-rule:evenodd;stroke:#000000;stroke-width:0.26574752;stroke-linecap:square"
       id="rect5773"
       inkscape:connector-curvature="0" />
    <path
       d="m 121.07267,136.56659 0.93134,0.8136 -2.17488,2.49237 -0.93133,-0.81359 z"
       style="fill:#ffffff;fill-rule:evenodd;stroke:#000000;stroke-width:0.26574752;stroke-linecap:square"
       id="rect5775"
       inkscape:connector-curvature="0" />
    <path
       d="m 459.8,214.84 c 0,15.11 -12.26,27.36 -27.36,27.36 -15.1,0 -27.36,-12.25 -27.36,-27.36 0,-15.1 12.26,-27.36 27.36,-27.36 15.1,0 27.36,12.26 27.36,27.36 z"
       transform="matrix(0,0.15826052,-0.15826052,0,139.83296,91.818669)"
       style="fill:#ca4136;fill-rule:evenodd;stroke:#000000;stroke-width:1.6336;filter:url(#filter4419)"
       id="path4395"
       inkscape:connector-curvature="0" />
    <path
       d="m 106.34597,160.25474 c 0,0.28178 -0.23019,0.51197 -0.51197,0.51197 -0.28311,0 -0.51197,-0.23019 -0.51197,-0.51197 0,-0.28311 0.22886,-0.51197 0.51197,-0.51197 0.28178,0 0.51197,0.22886 0.51197,0.51197 z"
       style="fill:#4d4d4d;fill-rule:evenodd;stroke:#000000;stroke-width:0.08720931;stroke-linecap:square"
       id="path5769"
       inkscape:connector-curvature="0" />
    <path
       d="m 398.29,192.79 c 0,5.62 -3.85,10.18 -8.59,10.18 -4.74,0 -8.59,-4.56 -8.59,-10.18 0,-5.62 3.85,-10.18 8.59,-10.18 4.74,0 8.59,4.56 8.59,10.18 z"
       transform="matrix(0.36549543,0,0,0.30838511,-18.083611,100.80043)"
       style="opacity:0.83999999;fill:none;stroke:#000000;stroke-width:0.87563998;stroke-linecap:square;filter:url(#filter5890)"
       id="path5838"
       inkscape:connector-curvature="0" />
    <path
       transform="matrix(0.29397855,0,0,0.29397855,22.361921,72.287392)"
       style="fill:none;stroke:url(#radialGradient3535);stroke-width:5.13140011;filter:url(#filter5822)"
       d="m 346.93,291 v 16.45 m 8.23,-8.23 H 338.7"
       id="path5840"
       inkscape:connector-curvature="0" />
    <path
       d="m 398.29,192.79 c 0,5.62 -3.85,10.18 -8.59,10.18 -4.74,0 -8.59,-4.56 -8.59,-10.18 0,-5.62 3.85,-10.18 8.59,-10.18 4.74,0 8.59,4.56 8.59,10.18 z"
       transform="matrix(0.36549543,0,0,0.30838511,-55.123956,100.80043)"
       style="opacity:0.83999999;fill:none;stroke:#000000;stroke-width:0.87563998;stroke-linecap:square;filter:url(#filter5890)"
       id="path5912"
       inkscape:connector-curvature="0" />
    <path
       d="m 220.94,291 v 16.45 m 8.22,-8.23 h -16.45"
       transform="matrix(0.29397855,0,0,0.29397855,22.361921,72.287392)"
       style="fill:none;stroke:url(#radialGradient3537);stroke-width:5.13140011;filter:url(#filter5822)"
       id="path5914"
       inkscape:connector-curvature="0" />
  </g>
</svg>
