<?xml version="1.0" encoding="UTF-8" standalone="no"?>
<!-- Created with Inkscape (http://www.inkscape.org/) -->

<svg
   xmlns:dc="http://purl.org/dc/elements/1.1/"
   xmlns:cc="http://creativecommons.org/ns#"
   xmlns:rdf="http://www.w3.org/1999/02/22-rdf-syntax-ns#"
   xmlns:svg="http://www.w3.org/2000/svg"
   xmlns="http://www.w3.org/2000/svg"
   xmlns:xlink="http://www.w3.org/1999/xlink"
   xmlns:sodipodi="http://sodipodi.sourceforge.net/DTD/sodipodi-0.dtd"
   xmlns:inkscape="http://www.inkscape.org/namespaces/inkscape"
   width="210mm"
   height="297mm"
   viewBox="0 0 210 297"
   version="1.1"
   id="svg6437"
   inkscape:version="0.92.4 (e05b578f1, 2019-02-26, custom)"
   sodipodi:docname="Meter5.svg">
  <defs
     id="defs6431">
    <filter
       inkscape:collect="always"
       id="filter5822">
      <feGaussianBlur
         inkscape:collect="always"
         stdDeviation="0.10794278"
         id="feGaussianBlur5824" />
    </filter>
    <linearGradient
       inkscape:collect="always"
       id="linearGradient5798">
      <stop
         offset="0"
         style="stop-color:#000000"
         id="stop5800" />
      <stop
         offset="1"
         style="stop-color:#000000;stop-opacity:0"
         id="stop5802" />
    </linearGradient>
    <filter
       inkscape:collect="always"
       id="filter5890">
      <feGaussianBlur
         inkscape:collect="always"
         stdDeviation="0.29366271"
         id="feGaussianBlur5892" />
    </filter>
    <filter
       inkscape:collect="always"
       id="filter4419">
      <feGaussianBlur
         inkscape:collect="always"
         stdDeviation="0.28512898"
         id="feGaussianBlur4421" />
    </filter>
    <radialGradient
       inkscape:collect="always"
       r="87.572"
       gradientTransform="matrix(1.427,0,0,1.42575,-134.467,-225.797)"
       cx="255.71"
       cy="320.93"
       gradientUnits="userSpaceOnUse"
       spreadMethod="reflect"
       id="radialGradient3533">
      <stop
         offset="0"
         style="stop-color:#000000"
         id="stop5896" />
      <stop
         offset=".5"
         style="stop-color:#000000;stop-opacity:.49804"
         id="stop5902" />
      <stop
         offset="1"
         style="stop-color:#000000;stop-opacity:.58929"
         id="stop5898" />
    </radialGradient>
    <radialGradient
       inkscape:collect="always"
       r="10.794"
       gradientTransform="translate(56.865,258.43)"
       cx="290.06"
       cy="40.79"
       gradientUnits="userSpaceOnUse"
       spreadMethod="repeat"
       xlink:href="#linearGradient5798"
       id="radialGradient3535" />
    <radialGradient
       inkscape:collect="always"
       r="10.794"
       gradientTransform="translate(-69.128,258.43)"
       cx="290.06"
       cy="40.79"
       gradientUnits="userSpaceOnUse"
       spreadMethod="repeat"
       xlink:href="#linearGradient5798"
       id="radialGradient3537" />
  </defs>
  <sodipodi:namedview
     id="base"
     pagecolor="#ffffff"
     bordercolor="#666666"
     borderopacity="1.0"
     inkscape:pageopacity="0.0"
     inkscape:pageshadow="2"
     inkscape:zoom="2.8284271"
     inkscape:cx="342.41648"
     inkscape:cy="556.51138"
     inkscape:document-units="mm"
     inkscape:current-layer="layer1-1"
     showgrid="false"
     inkscape:window-width="1366"
     inkscape:window-height="705"
     inkscape:window-x="-8"
     inkscape:window-y="-8"
     inkscape:window-maximized="1" />
  <metadata
     id="metadata6434">
    <rdf:RDF>
      <cc:Work
         rdf:about="">
        <dc:format>image/svg+xml</dc:format>
        <dc:type
           rdf:resource="http://purl.org/dc/dcmitype/StillImage" />
        <dc:title></dc:title>
      </cc:Work>
    </rdf:RDF>
  </metadata>
  <g
     inkscape:label="Layer 1"
     inkscape:groupmode="layer"
     id="layer1">
    <g
       transform="matrix(0.26458333,0,0,0.26458333,44.863941,87.508077)"
       inkscape:label="Layer 1"
       id="layer1-1">
      <path
         inkscape:connector-curvature="0"
         id="path2383"
         style="fill:#1c1d1f;fill-rule:evenodd;stroke:#000000;stroke-width:1.55470002;stroke-linecap:square"
         d="m 379.658,231.783 c 0,82.37 -66.85,149.22 -149.22,149.22 -82.375,0 -149.225,-66.85 -149.225,-149.22 0,-82.375 66.85,-149.225 149.225,-149.225 82.37,5e-4 149.22,66.85 149.22,149.225 z" />
      <path
         inkscape:connector-curvature="0"
         id="path2638"
         style="fill:#353736;fill-rule:evenodd;stroke:url(#radialGradient3533);stroke-width:1.11109996;stroke-linecap:square"
         d="m 354.788,231.783 c 0,68.64 -55.71,124.35 -124.35,124.35 -68.645,0 -124.355,-55.71 -124.355,-124.35 0,-68.645 55.71,-124.355 124.355,-124.355 68.64,0 124.35,55.71 124.35,124.355 z" />
      <path
         inkscape:connector-curvature="0"
         id="rect3332"
         style="fill:#ffffff;fill-rule:evenodd;stroke:#000000;stroke-width:0.92774999;stroke-linecap:square"
         d="m 151.318,198.873 4.205,-4.415 18.345,17.475 -4.205,4.415 z" />
      <path
         inkscape:connector-curvature="0"
         id="rect3334"
         style="fill:#ffffff;fill-rule:evenodd;stroke:#000000;stroke-width:0.92774999;stroke-linecap:square"
         d="m 313.858,198.873 -4.205,-4.415 -18.345,17.475 4.205,4.415 z" />
      <path
         inkscape:connector-curvature="0"
         id="flowRoot3340"
         style="fill:#ffffff;stroke-width:0.5"
         d="m 214.013,237.008 h -3.845 l -1.525,-3.975 h -6.995 l -1.445,3.975 h -3.745 l 6.815,-17.5 h 3.735 z m -6.505,-6.925 -2.41,-6.49 -2.365,6.49 z m 8.345,6.925 v -17.5 h 5.285 l 3.175,11.94 3.14,-11.94 h 5.3 v 17.5 h -3.285 v -13.775 l -3.47,13.775 h -3.405 l -3.46,-13.775 v 13.775 z m 20.435,0 v -17.5 h 5.665 c 2.15,0 3.55,0.09 4.205,0.265 1,0.26 1.84,0.835 2.515,1.71 0.68,0.88 1.015,2.015 1.015,3.41 0,1.075 -0.195,1.975 -0.585,2.71 -0.39,0.73 -0.885,1.305 -1.485,1.725 -0.6,0.415 -1.21,0.695 -1.83,0.83 -0.845,0.165 -2.065,0.25 -3.665,0.25 h -2.305 v 6.6 z m 3.53,-14.54 v 4.965 h 1.935 c 1.39,0 2.325,-0.09 2.79,-0.27 0.47,-0.185 0.84,-0.47 1.105,-0.86 0.27,-0.39 0.4,-0.845 0.4,-1.36 0,-0.64 -0.185,-1.165 -0.56,-1.58 -0.375,-0.41 -0.845,-0.67 -1.42,-0.775 -0.42,-0.08 -1.27,-0.12 -2.545,-0.12 z m 11.9,8.845 3.44,-0.335 c 0.205,1.155 0.625,2.005 1.255,2.545 0.635,0.54 1.49,0.81 2.56,0.81 1.14,0 2,-0.24 2.575,-0.72 0.575,-0.485 0.865,-1.045 0.865,-1.69 0,-0.415 -0.12,-0.765 -0.365,-1.055 -0.24,-0.29 -0.665,-0.545 -1.27,-0.76 -0.415,-0.145 -1.355,-0.395 -2.83,-0.765 -1.895,-0.47 -3.22,-1.045 -3.985,-1.73 -1.075,-0.96 -1.61,-2.135 -1.61,-3.52 0,-0.89 0.25,-1.725 0.755,-2.5 0.505,-0.775 1.235,-1.365 2.185,-1.775 0.95,-0.405 2.1,-0.605 3.445,-0.605 2.195,0 3.85,0.48 4.96,1.445 1.11,0.96 1.69,2.245 1.745,3.855 l -3.53,0.155 c -0.15,-0.9 -0.475,-1.55 -0.975,-1.94 -0.495,-0.395 -1.24,-0.59 -2.235,-0.59 -1.03,0 -1.83,0.21 -2.415,0.63 -0.37,0.27 -0.56,0.635 -0.56,1.085 0,0.415 0.175,0.77 0.525,1.065 0.445,0.375 1.53,0.765 3.25,1.17 1.715,0.405 2.99,0.825 3.81,1.26 0.825,0.43 1.47,1.025 1.935,1.775 0.465,0.755 0.7,1.68 0.7,2.79 0,1 -0.28,1.94 -0.84,2.815 -0.555,0.875 -1.34,1.525 -2.36,1.95 -1.02,0.425 -2.29,0.64 -3.81,0.64 -2.21,0 -3.91,-0.51 -5.095,-1.535 -1.185,-1.02 -1.895,-2.51 -2.125,-4.47 z" />
      <path
         inkscape:connector-curvature="0"
         id="flowRoot3356"
         style="fill:#ffffff;stroke-width:0.5"
         d="m 283.413,234.383 v -4.55 h -4.585 v -3.14 h 4.585 v -4.545 h 3.055 v 4.545 h 4.595 v 3.14 h -4.595 v 4.55 z" />
      <path
         inkscape:connector-curvature="0"
         id="flowRoot3366"
         style="fill:#ffffff;stroke-width:0.5"
         d="m 169.808,229.943 v -3.355 h 13.765 v 3.355 z" />
      <path
         inkscape:connector-curvature="0"
         id="rect3336"
         style="fill:#ffffff;fill-rule:evenodd;stroke:#000000;stroke-width:0.92774999;stroke-linecap:square"
         d="m 273.718,171.928 -5.48,-2.665 -11.09,22.78 5.48,2.665 z" />
      <path
         inkscape:connector-curvature="0"
         id="rect3338"
         style="fill:#ffffff;fill-rule:evenodd;stroke:#000000;stroke-width:0.92774999;stroke-linecap:square"
         d="m 187.153,171.928 5.48,-2.665 11.09,22.78 -5.48,2.665 z" />
      <path
         inkscape:connector-curvature="0"
         id="rect3330"
         style="fill:#ffffff;fill-rule:evenodd;stroke:#000000;stroke-width:1.11109996;stroke-linecap:square"
         d="m 225.523,164.123 h 9.825 v 22.54 h -9.825 z" />
      <path
         inkscape:connector-curvature="0"
         id="flowRoot5701"
         style="fill:#ffffff;stroke-width:0.5"
         d="m 319.028,208.928 -3.245,0.355 c -0.08,-0.665 -0.285,-1.16 -0.62,-1.48 -0.335,-0.315 -0.77,-0.475 -1.3,-0.475 -0.71,0 -1.31,0.32 -1.8,0.955 -0.485,0.635 -0.795,1.96 -0.925,3.975 0.84,-0.985 1.875,-1.48 3.115,-1.48 1.405,0 2.6,0.53 3.6,1.6 1,1.065 1.5,2.44 1.5,4.13 0,1.79 -0.525,3.225 -1.575,4.305 -1.05,1.085 -2.4,1.625 -4.05,1.625 -1.765,0 -3.215,-0.685 -4.355,-2.06 -1.135,-1.37 -1.705,-3.62 -1.705,-6.75 0,-3.205 0.59,-5.515 1.775,-6.935 1.19,-1.415 2.73,-2.12 4.62,-2.12 1.33,0 2.43,0.37 3.3,1.115 0.875,0.745 1.43,1.825 1.665,3.24 z m -7.6,7.315 c 0,1.09 0.25,1.935 0.75,2.525 0.5,0.595 1.075,0.89 1.72,0.89 0.62,0 1.135,-0.245 1.55,-0.73 0.415,-0.485 0.62,-1.28 0.62,-2.385 0,-1.14 -0.22,-1.97 -0.665,-2.5 -0.445,-0.53 -1.005,-0.795 -1.675,-0.795 -0.64,0 -1.185,0.255 -1.635,0.76 -0.445,0.505 -0.665,1.25 -0.665,2.235 z m 15.515,-11.67 c 1.695,0 3.02,0.605 3.975,1.81 1.14,1.435 1.705,3.81 1.705,7.13 0,3.31 -0.57,5.685 -1.715,7.135 -0.95,1.195 -2.27,1.79 -3.965,1.79 -1.705,0 -3.075,-0.655 -4.12,-1.965 -1.04,-1.305 -1.56,-3.64 -1.56,-7 0,-3.29 0.57,-5.665 1.715,-7.11 0.95,-1.195 2.27,-1.79 3.965,-1.79 z m 0,2.78 c -0.405,0 -0.77,0.13 -1.085,0.385 -0.32,0.26 -0.565,0.725 -0.74,1.39 -0.23,0.87 -0.345,2.33 -0.345,4.385 0,2.05 0.1,3.46 0.31,4.23 0.205,0.765 0.465,1.28 0.78,1.535 0.315,0.25 0.675,0.38 1.08,0.38 0.405,0 0.77,-0.13 1.085,-0.39 0.32,-0.255 0.565,-0.72 0.74,-1.39 0.23,-0.86 0.345,-2.315 0.345,-4.365 0,-2.055 -0.1,-3.465 -0.31,-4.235 -0.205,-0.765 -0.465,-1.28 -0.78,-1.54 -0.315,-0.255 -0.675,-0.385 -1.08,-0.385 z" />
      <path
         inkscape:connector-curvature="0"
         id="flowRoot5711"
         style="fill:#ffffff;stroke-width:0.5"
         d="m 144.108,208.928 -3.245,0.355 c -0.08,-0.665 -0.29,-1.16 -0.62,-1.48 -0.335,-0.315 -0.77,-0.475 -1.305,-0.475 -0.705,0 -1.305,0.32 -1.795,0.955 -0.49,0.635 -0.795,1.96 -0.925,3.975 0.835,-0.985 1.875,-1.48 3.115,-1.48 1.4,0 2.6,0.53 3.6,1.6 1,1.065 1.495,2.44 1.495,4.13 0,1.79 -0.525,3.225 -1.575,4.305 -1.05,1.085 -2.395,1.625 -4.045,1.625 -1.765,0 -3.22,-0.685 -4.355,-2.06 -1.14,-1.37 -1.71,-3.62 -1.71,-6.75 0,-3.205 0.595,-5.515 1.78,-6.935 1.185,-1.415 2.725,-2.12 4.62,-2.12 1.33,0 2.43,0.37 3.3,1.115 0.87,0.745 1.425,1.825 1.665,3.24 z m -7.605,7.315 c 0,1.09 0.255,1.935 0.755,2.525 0.5,0.595 1.075,0.89 1.72,0.89 0.62,0 1.135,-0.245 1.55,-0.73 0.415,-0.485 0.62,-1.28 0.62,-2.385 0,-1.14 -0.225,-1.97 -0.67,-2.5 -0.445,-0.53 -1,-0.795 -1.67,-0.795 -0.645,0 -1.19,0.255 -1.635,0.76 -0.445,0.505 -0.67,1.25 -0.67,2.235 z m 15.52,-11.67 c 1.695,0 3.02,0.605 3.975,1.81 1.135,1.435 1.705,3.81 1.705,7.13 0,3.31 -0.575,5.685 -1.72,7.135 -0.945,1.195 -2.265,1.79 -3.96,1.79 -1.705,0 -3.075,-0.655 -4.12,-1.965 -1.04,-1.305 -1.565,-3.64 -1.565,-7 0,-3.29 0.575,-5.665 1.72,-7.11 0.95,-1.195 2.27,-1.79 3.965,-1.79 z m 0,2.78 c -0.405,0 -0.77,0.13 -1.09,0.385 -0.315,0.26 -0.565,0.725 -0.74,1.39 -0.23,0.87 -0.345,2.33 -0.345,4.385 0,2.05 0.105,3.46 0.31,4.23 0.21,0.765 0.47,1.28 0.785,1.535 0.315,0.25 0.675,0.38 1.08,0.38 0.405,0 0.765,-0.13 1.085,-0.39 0.32,-0.255 0.565,-0.72 0.74,-1.39 0.23,-0.86 0.345,-2.315 0.345,-4.365 0,-2.055 -0.105,-3.465 -0.31,-4.235 -0.205,-0.765 -0.465,-1.28 -0.78,-1.54 -0.315,-0.255 -0.675,-0.385 -1.08,-0.385 z" />
      <path
         inkscape:connector-curvature="0"
         id="flowRoot5681"
         style="fill:#ffffff;stroke-width:0.5"
         d="m 230.438,138.683 c 1.695,0 3.02,0.605 3.97,1.815 1.14,1.43 1.71,3.805 1.71,7.125 0,3.31 -0.575,5.69 -1.72,7.14 -0.945,1.19 -2.265,1.79 -3.96,1.79 -1.705,0 -3.08,-0.655 -4.12,-1.965 -1.04,-1.31 -1.565,-3.645 -1.565,-7 0,-3.295 0.575,-5.665 1.72,-7.115 0.945,-1.195 2.27,-1.79 3.965,-1.79 z m 0,2.78 c -0.41,0 -0.77,0.13 -1.09,0.39 -0.315,0.26 -0.565,0.72 -0.74,1.39 -0.23,0.865 -0.345,2.325 -0.345,4.38 0,2.055 0.105,3.465 0.31,4.23 0.21,0.77 0.47,1.28 0.785,1.535 0.31,0.255 0.67,0.38 1.08,0.38 0.405,0 0.765,-0.125 1.085,-0.385 0.315,-0.26 0.565,-0.725 0.74,-1.39 0.23,-0.86 0.345,-2.315 0.345,-4.37 0,-2.055 -0.105,-3.465 -0.31,-4.23 -0.205,-0.77 -0.47,-1.28 -0.78,-1.54 -0.315,-0.26 -0.675,-0.39 -1.08,-0.39 z" />
      <path
         inkscape:connector-curvature="0"
         id="flowRoot5691"
         style="fill:#ffffff;stroke-width:0.5"
         d="m 268.683,162.048 3.245,-0.395 c 0.105,0.83 0.38,1.46 0.835,1.9 0.455,0.435 1.005,0.655 1.65,0.655 0.69,0 1.275,-0.265 1.745,-0.79 0.475,-0.525 0.71,-1.23 0.71,-2.125 0,-0.84 -0.225,-1.51 -0.68,-2.005 -0.45,-0.49 -1.005,-0.74 -1.655,-0.74 -0.43,0 -0.945,0.085 -1.54,0.255 l 0.37,-2.735 c 0.905,0.025 1.595,-0.175 2.075,-0.59 0.475,-0.42 0.715,-0.975 0.715,-1.665 0,-0.59 -0.175,-1.06 -0.525,-1.41 -0.35,-0.35 -0.815,-0.525 -1.395,-0.525 -0.575,0 -1.065,0.2 -1.47,0.595 -0.405,0.4 -0.65,0.98 -0.74,1.745 l -3.09,-0.525 c 0.215,-1.06 0.54,-1.905 0.97,-2.535 0.435,-0.635 1.04,-1.13 1.815,-1.495 0.775,-0.36 1.645,-0.54 2.61,-0.54 1.645,0 2.97,0.525 3.96,1.575 0.82,0.86 1.23,1.83 1.23,2.91 0,1.535 -0.84,2.76 -2.515,3.675 1,0.215 1.805,0.7 2.405,1.445 0.6,0.75 0.9,1.65 0.9,2.71 0,1.535 -0.56,2.845 -1.685,3.925 -1.12,1.085 -2.515,1.625 -4.19,1.625 -1.58,0 -2.895,-0.455 -3.935,-1.365 -1.045,-0.91 -1.65,-2.105 -1.815,-3.575 z m 19.395,-12.925 c 1.695,0 3.02,0.605 3.975,1.81 1.135,1.435 1.705,3.81 1.705,7.13 0,3.31 -0.57,5.685 -1.72,7.135 -0.945,1.195 -2.265,1.79 -3.96,1.79 -1.705,0 -3.075,-0.655 -4.12,-1.965 -1.04,-1.305 -1.56,-3.64 -1.56,-7 0,-3.29 0.57,-5.665 1.715,-7.11 0.95,-1.195 2.27,-1.79 3.965,-1.79 z m 0,2.78 c -0.405,0 -0.77,0.13 -1.085,0.385 -0.32,0.26 -0.565,0.725 -0.74,1.39 -0.23,0.87 -0.35,2.33 -0.35,4.385 0,2.05 0.105,3.46 0.315,4.23 0.205,0.765 0.465,1.28 0.78,1.535 0.315,0.25 0.675,0.38 1.08,0.38 0.405,0 0.765,-0.13 1.085,-0.39 0.32,-0.255 0.565,-0.72 0.74,-1.39 0.23,-0.86 0.345,-2.315 0.345,-4.365 0,-2.055 -0.1,-3.465 -0.31,-4.235 -0.205,-0.765 -0.465,-1.28 -0.78,-1.54 -0.315,-0.255 -0.675,-0.385 -1.08,-0.385 z" />
      <path
         inkscape:connector-curvature="0"
         id="flowRoot5719"
         style="fill:#ffffff;stroke-width:0.5"
         d="m 167.113,162.048 3.245,-0.395 c 0.105,0.83 0.385,1.46 0.835,1.9 0.455,0.435 1.005,0.655 1.65,0.655 0.69,0 1.275,-0.265 1.745,-0.79 0.475,-0.525 0.715,-1.23 0.715,-2.125 0,-0.84 -0.23,-1.51 -0.685,-2.005 -0.45,-0.49 -1.005,-0.74 -1.655,-0.74 -0.43,0 -0.945,0.085 -1.54,0.255 l 0.37,-2.735 c 0.905,0.025 1.6,-0.175 2.075,-0.59 0.48,-0.42 0.715,-0.975 0.715,-1.665 0,-0.59 -0.175,-1.06 -0.525,-1.41 -0.35,-0.35 -0.815,-0.525 -1.395,-0.525 -0.575,0 -1.065,0.2 -1.47,0.595 -0.405,0.4 -0.65,0.98 -0.74,1.745 l -3.09,-0.525 c 0.215,-1.06 0.54,-1.905 0.975,-2.535 0.43,-0.635 1.035,-1.13 1.81,-1.495 0.78,-0.36 1.645,-0.54 2.61,-0.54 1.645,0 2.97,0.525 3.965,1.575 0.82,0.86 1.225,1.83 1.225,2.91 0,1.535 -0.835,2.76 -2.515,3.675 1,0.215 1.805,0.7 2.405,1.445 0.6,0.75 0.9,1.65 0.9,2.71 0,1.535 -0.56,2.845 -1.685,3.925 -1.12,1.085 -2.515,1.625 -4.185,1.625 -1.585,0 -2.9,-0.455 -3.94,-1.365 -1.045,-0.91 -1.65,-2.105 -1.815,-3.575 z m 19.395,-12.925 c 1.695,0 3.02,0.605 3.975,1.81 1.14,1.435 1.705,3.81 1.705,7.13 0,3.31 -0.57,5.685 -1.715,7.135 -0.95,1.195 -2.27,1.79 -3.965,1.79 -1.705,0 -3.075,-0.655 -4.12,-1.965 -1.04,-1.305 -1.56,-3.64 -1.56,-7 0,-3.29 0.57,-5.665 1.72,-7.11 0.945,-1.195 2.265,-1.79 3.96,-1.79 z m 0,2.78 c -0.405,0 -0.77,0.13 -1.085,0.385 -0.32,0.26 -0.565,0.725 -0.74,1.39 -0.23,0.87 -0.345,2.33 -0.345,4.385 0,2.05 0.1,3.46 0.31,4.23 0.205,0.765 0.465,1.28 0.78,1.535 0.315,0.25 0.675,0.38 1.08,0.38 0.405,0 0.77,-0.13 1.085,-0.39 0.32,-0.255 0.565,-0.72 0.74,-1.39 0.23,-0.86 0.35,-2.315 0.35,-4.365 0,-2.055 -0.105,-3.465 -0.315,-4.235 -0.205,-0.765 -0.465,-1.28 -0.78,-1.54 -0.315,-0.255 -0.675,-0.385 -1.08,-0.385 z" />
      <path
         inkscape:connector-curvature="0"
         id="rect5735"
         style="fill:#ffffff;fill-rule:evenodd;stroke:#000000;stroke-width:1.00440001;stroke-linecap:square"
         d="m 250.523,168.723 4.36,1.685 -4.515,11.66 -4.355,-1.69 z" />
      <path
         inkscape:connector-curvature="0"
         id="rect5737"
         style="fill:#ffffff;fill-rule:evenodd;stroke:#000000;stroke-width:1.00440001;stroke-linecap:square"
         d="m 210.348,168.723 -4.36,1.685 4.515,11.66 4.36,-1.69 z" />
      <path
         inkscape:connector-curvature="0"
         id="rect5773"
         style="fill:#ffffff;fill-rule:evenodd;stroke:#000000;stroke-width:1.00440001;stroke-linecap:square"
         d="m 176.903,185.418 -3.52,3.075 8.22,9.42 3.52,-3.075 z" />
      <path
         inkscape:connector-curvature="0"
         id="rect5775"
         style="fill:#ffffff;fill-rule:evenodd;stroke:#000000;stroke-width:1.00440001;stroke-linecap:square"
         d="m 288.033,185.418 3.52,3.075 -8.22,9.42 -3.52,-3.075 z" />
      <g
         id="g6558"
         transform="rotate(-45.009244,230.0482,274.86053)"
         inkscape:transform-center-y="-7.949916"
         inkscape:label="{&quot;attr&quot;:&quot;rotate&quot;,&quot;max&quot;:100,&quot;min&quot;:0,&quot;tag&quot;:&quot;TAG1&quot;}"
         inkscape:transform-center-x="7.8207937">
        <path
           d="m 228.24481,169.3775 -4.67861,104.09394 13.71499,0.0381 -4.66138,-104.13106 z"
           style="fill:#c83e30;fill-rule:evenodd;stroke-width:0.5"
           id="path5655"
           inkscape:connector-curvature="0" />
        <path
           d="m 459.8,214.84 c 0,15.11 -12.26,27.36 -27.36,27.36 -15.1,0 -27.36,-12.25 -27.36,-27.36 0,-15.1 12.26,-27.36 27.36,-27.36 15.1,0 27.36,12.26 27.36,27.36 z"
           transform="matrix(0,0.59815,-0.59815,0,358.938,16.292)"
           style="fill:#ca4136;fill-rule:evenodd;stroke:#000000;stroke-width:1.6336;filter:url(#filter4419)"
           id="path4395"
           inkscape:connector-curvature="0" />
      </g>
      <path
         inkscape:connector-curvature="0"
         id="path5769"
         style="fill:#4d4d4d;fill-rule:evenodd;stroke:#000000;stroke-width:0.32960999;stroke-linecap:square"
         d="m 232.373,274.948 c 0,1.065 -0.87,1.935 -1.935,1.935 -1.07,0 -1.935,-0.87 -1.935,-1.935 0,-1.07 0.865,-1.935 1.935,-1.935 1.065,0 1.935,0.865 1.935,1.935 z" />
      <path
         inkscape:connector-curvature="0"
         id="path5838"
         style="opacity:0.83999999;fill:none;stroke:#000000;stroke-width:0.87563998;stroke-linecap:square;filter:url(#filter5890)"
         transform="matrix(1.3814,0,0,1.16555,-237.912,50.2388)"
         d="m 398.29,192.79 c 0,5.62 -3.85,10.18 -8.59,10.18 -4.74,0 -8.59,-4.56 -8.59,-10.18 0,-5.62 3.85,-10.18 8.59,-10.18 4.74,0 8.59,4.56 8.59,10.18 z" />
      <path
         inkscape:connector-curvature="0"
         id="path5840"
         d="m 346.93,291 v 16.45 m 8.23,-8.23 H 338.7"
         style="fill:none;stroke:url(#radialGradient3535);stroke-width:5.13140011;filter:url(#filter5822)"
         transform="matrix(1.1111,0,0,1.1111,-85.047,-57.527)" />
      <path
         inkscape:connector-curvature="0"
         id="path5912"
         style="opacity:0.83999999;fill:none;stroke:#000000;stroke-width:0.87563998;stroke-linecap:square;filter:url(#filter5890)"
         transform="matrix(1.3814,0,0,1.16555,-377.907,50.2388)"
         d="m 398.29,192.79 c 0,5.62 -3.85,10.18 -8.59,10.18 -4.74,0 -8.59,-4.56 -8.59,-10.18 0,-5.62 3.85,-10.18 8.59,-10.18 4.74,0 8.59,4.56 8.59,10.18 z" />
      <path
         inkscape:connector-curvature="0"
         id="path5914"
         style="fill:none;stroke:url(#radialGradient3537);stroke-width:5.13140011;filter:url(#filter5822)"
         transform="matrix(1.1111,0,0,1.1111,-85.047,-57.527)"
         d="m 220.94,291 v 16.45 m 8.22,-8.23 h -16.45" />
      <rect
         style="fill:#f9f9f9;fill-opacity:0;stroke-width:1.00041485"
         id="rect8803"
         width="416.83151"
         height="316.07672"
         x="12.335508"
         y="43.614708"
         transform="matrix(0.9925609,0.12174914,-0.08123781,0.99669475,0,0)" />
    </g>
  </g>
</svg>
