<?xml version="1.0" encoding="UTF-8" standalone="no"?>
<!-- Created with Inkscape (http://www.inkscape.org/) -->
<svg
   xmlns:dc="http://purl.org/dc/elements/1.1/"
   xmlns:cc="http://creativecommons.org/ns#"
   xmlns:rdf="http://www.w3.org/1999/02/22-rdf-syntax-ns#"
   xmlns:svg="http://www.w3.org/2000/svg"
   xmlns="http://www.w3.org/2000/svg"
   xmlns:xlink="http://www.w3.org/1999/xlink"
   xmlns:sodipodi="http://sodipodi.sourceforge.net/DTD/sodipodi-0.dtd"
   xmlns:inkscape="http://www.inkscape.org/namespaces/inkscape"
   width="300"
   height="299.99997"
   id="svg3422"
   sodipodi:version="0.32"
   inkscape:version="0.46"
   version="1.0"
   sodipodi:docname="Amp Meter.svg"
   inkscape:output_extension="org.inkscape.output.svg.inkscape"
   inkscape:export-filename="F:\Aviation\SVGs\Amp Meter\Amp Meter.png"
   inkscape:export-xdpi="90"
   inkscape:export-ydpi="90">
  <defs
     id="defs3424">
    <radialGradient
       inkscape:collect="always"
       xlink:href="#linearGradient5798"
       id="radialGradient6069"
       gradientUnits="userSpaceOnUse"
       gradientTransform="translate(-69.128111,258.4343)"
       spreadMethod="repeat"
       cx="290.06403"
       cy="40.78981"
       fx="290.06403"
       fy="40.78981"
       r="10.794278" />
    <filter
       inkscape:collect="always"
       id="filter5822">
      <feGaussianBlur
         inkscape:collect="always"
         stdDeviation="0.10794278"
         id="feGaussianBlur5824" />
    </filter>
    <linearGradient
       inkscape:collect="always"
       id="linearGradient5798">
      <stop
         style="stop-color:#000000;stop-opacity:1;"
         offset="0"
         id="stop5800" />
      <stop
         style="stop-color:#000000;stop-opacity:0;"
         offset="1"
         id="stop5802" />
    </linearGradient>
    <radialGradient
       inkscape:collect="always"
       xlink:href="#linearGradient5798"
       id="radialGradient6075"
       gradientUnits="userSpaceOnUse"
       gradientTransform="translate(56.865319,258.4343)"
       spreadMethod="repeat"
       cx="290.06403"
       cy="40.78981"
       fx="290.06403"
       fy="40.78981"
       r="10.794278" />
    <filter
       inkscape:collect="always"
       id="filter5890">
      <feGaussianBlur
         inkscape:collect="always"
         stdDeviation="0.29366271"
         id="feGaussianBlur5892" />
    </filter>
    <filter
       inkscape:collect="always"
       id="filter4419">
      <feGaussianBlur
         inkscape:collect="always"
         stdDeviation="0.28512898"
         id="feGaussianBlur4421" />
    </filter>
    <linearGradient
       id="linearGradient5894">
      <stop
         style="stop-color:#000000;stop-opacity:1;"
         offset="0"
         id="stop5896" />
      <stop
         id="stop5902"
         offset="0.5"
         style="stop-color:#000000;stop-opacity:0.49803922;" />
      <stop
         style="stop-color:#000000;stop-opacity:0.58928573;"
         offset="1"
         id="stop5898" />
    </linearGradient>
    <radialGradient
       inkscape:collect="always"
       xlink:href="#linearGradient5894"
       id="radialGradient6003"
       gradientUnits="userSpaceOnUse"
       gradientTransform="matrix(1,0,0,1.2120712,0,-68.060775)"
       spreadMethod="reflect"
       cx="255.71428"
       cy="320.93362"
       fx="255.71428"
       fy="320.93362"
       r="87.571663" />
    <inkscape:perspective
       sodipodi:type="inkscape:persp3d"
       inkscape:vp_x="0 : 526.18109 : 1"
       inkscape:vp_y="0 : 1000 : 0"
       inkscape:vp_z="744.09448 : 526.18109 : 1"
       inkscape:persp3d-origin="372.04724 : 350.78739 : 1"
       id="perspective3430" />
    <radialGradient
       inkscape:collect="always"
       xlink:href="#linearGradient5894"
       id="radialGradient3502"
       gradientUnits="userSpaceOnUse"
       gradientTransform="matrix(2.8539849,0,0,2.8515295,-365.51899,-547.07521)"
       spreadMethod="reflect"
       cx="255.71428"
       cy="320.93362"
       fx="255.71428"
       fy="320.93362"
       r="87.571663" />
    <radialGradient
       inkscape:collect="always"
       xlink:href="#linearGradient5894"
       id="radialGradient3533"
       gradientUnits="userSpaceOnUse"
       gradientTransform="matrix(2.8539849,0,0,2.8515295,-365.51899,-547.07521)"
       spreadMethod="reflect"
       cx="255.71428"
       cy="320.93362"
       fx="255.71428"
       fy="320.93362"
       r="87.571663" />
    <radialGradient
       inkscape:collect="always"
       xlink:href="#linearGradient5798"
       id="radialGradient3535"
       gradientUnits="userSpaceOnUse"
       gradientTransform="translate(56.865319,258.4343)"
       spreadMethod="repeat"
       cx="290.06403"
       cy="40.78981"
       fx="290.06403"
       fy="40.78981"
       r="10.794278" />
    <radialGradient
       inkscape:collect="always"
       xlink:href="#linearGradient5798"
       id="radialGradient3537"
       gradientUnits="userSpaceOnUse"
       gradientTransform="translate(-69.128111,258.4343)"
       spreadMethod="repeat"
       cx="290.06403"
       cy="40.78981"
       fx="290.06403"
       fy="40.78981"
       r="10.794278" />
  </defs>
  <sodipodi:namedview
     id="base"
     pagecolor="#ffffff"
     bordercolor="#666666"
     borderopacity="1.0"
     gridtolerance="10000"
     guidetolerance="10"
     objecttolerance="10"
     inkscape:pageopacity="0.0"
     inkscape:pageshadow="2"
     inkscape:zoom="1.1103093"
     inkscape:cx="150"
     inkscape:cy="149.99998"
     inkscape:document-units="px"
     inkscape:current-layer="layer1"
     showgrid="false" />
  <metadata
     id="metadata3427">
    <rdf:RDF>
      <cc:Work
         rdf:about="">
        <dc:format>image/svg+xml</dc:format>
        <dc:type
           rdf:resource="http://purl.org/dc/dcmitype/StillImage" />
      </cc:Work>
    </rdf:RDF>
  </metadata>
  <g
     inkscape:label="Layer 1"
     inkscape:groupmode="layer"
     id="layer1"
     transform="translate(-80.435705,-81.780827)">
    <g
       id="g3505"
       transform="matrix(0.5,0,0,0.5,48.292858,47.742577)">
      <path
         id="path2383"
         d="M 662.73096,368.07647 C 662.73096,532.81827 529.02748,666.52175 364.28569,666.52175 C 199.54389,666.52175 65.840414,532.81827 65.840414,368.07647 C 65.840414,203.3347 199.54389,69.631219 364.28569,69.631219 C 529.02748,69.631219 662.73096,203.3347 662.73096,368.07647 z"
         style="fill:#1c1d1f;fill-opacity:1;fill-rule:evenodd;stroke:#000000;stroke-width:3.10943842;stroke-linecap:square;stroke-linejoin:miter;stroke-miterlimit:4;stroke-dashoffset:0;stroke-opacity:1" />
      <path
         id="path2638"
         d="M 612.99011,368.07647 C 612.99011,505.36129 501.57054,616.78085 364.2857,616.78085 C 227.00087,616.78085 115.5813,505.36129 115.5813,368.07647 C 115.5813,230.79167 227.00087,119.37211 364.2857,119.37211 C 501.57054,119.37211 612.99011,230.79167 612.99011,368.07647 z"
         style="fill:#353736;fill-opacity:1;fill-rule:evenodd;stroke:url(#radialGradient3533);stroke-width:2.22222233;stroke-linecap:square;stroke-linejoin:miter;stroke-miterlimit:4;stroke-dashoffset:0;stroke-opacity:1" />
      <path
         id="rect3332"
         d="M 206.04699,302.25695 L 214.45589,293.42931 L 251.14623,328.37921 L 242.73733,337.20686 L 206.04699,302.25695 z"
         style="fill:#ffffff;fill-opacity:1;fill-rule:evenodd;stroke:#000000;stroke-width:1.85551095;stroke-linecap:square;stroke-linejoin:miter;stroke-miterlimit:4;stroke-dashoffset:0;stroke-opacity:1" />
      <path
         id="rect3334"
         d="M 531.1317,302.25696 L 522.72279,293.4293 L 486.0324,328.37925 L 494.44131,337.2069 L 531.1317,302.25696 z"
         style="fill:#ffffff;fill-opacity:1;fill-rule:evenodd;stroke:#000000;stroke-width:1.85551274;stroke-linecap:square;stroke-linejoin:miter;stroke-miterlimit:4;stroke-dashoffset:0;stroke-opacity:1" />
      <path
         id="flowRoot3340"
         d="M 331.44096,378.52915 L 323.75431,378.52915 L 320.69876,370.57993 L 306.71004,370.57993 L 303.8216,378.52915 L 296.32593,378.52915 L 309.95658,343.5335 L 317.42836,343.5335 L 331.44096,378.52915 z M 318.43098,364.68366 L 313.60891,351.69755 L 308.88236,364.68366 L 318.43098,364.68366 z M 335.11716,378.52915 L 335.11716,343.5335 L 345.69224,343.5335 L 352.04209,367.40502 L 358.32029,343.5335 L 368.91924,343.5335 L 368.91924,378.52915 L 362.35458,378.52915 L 362.35458,350.98142 L 355.40795,378.52915 L 348.60458,378.52915 L 341.68184,350.98142 L 341.68184,378.52915 L 335.11716,378.52915 z M 375.98522,378.52915 L 375.98522,343.5335 L 387.3242,343.5335 C 391.62104,343.53353 394.42198,343.70859 395.72698,344.05866 C 397.73215,344.58388 399.41111,345.72573 400.76387,347.48424 C 402.11655,349.24279 402.79291,351.51457 402.79295,354.29955 C 402.79291,356.44802 402.40302,358.25428 401.62324,359.71839 C 400.8434,361.18253 399.85273,362.33235 398.65124,363.16784 C 397.44969,364.00335 396.22824,364.55637 394.98695,364.8269 C 393.30002,365.1611 390.85715,365.32822 387.6584,365.32819 L 383.0512,365.32819 L 383.0512,378.52915 L 375.98522,378.52915 z M 383.0512,349.45364 L 383.0512,359.38419 L 386.91838,359.38419 C 389.70338,359.38422 391.56535,359.20119 392.50431,358.83515 C 393.44324,358.46913 394.17929,357.89622 394.71244,357.11639 C 395.24553,356.33662 395.51211,355.4295 395.51213,354.39504 C 395.51211,353.12193 395.13811,352.07157 394.39018,351.24399 C 393.64218,350.41648 392.69527,349.89926 391.54947,349.69235 C 390.70598,349.53324 389.01111,349.45366 386.46482,349.45364 L 383.0512,349.45364 z M 406.85111,367.14244 L 413.72611,366.47404 C 414.13987,368.78162 414.97935,370.4765 416.24455,371.55866 C 417.50973,372.64086 419.21653,373.18195 421.365,373.18193 C 423.64073,373.18195 425.35549,372.70053 426.50931,371.7377 C 427.66309,370.7749 428.23998,369.64895 428.24,368.35988 C 428.23998,367.53235 427.99729,366.82815 427.51191,366.24726 C 427.02651,365.66639 426.17907,365.1611 424.9696,364.73142 C 424.14202,364.44497 422.25618,363.9357 419.31204,363.20364 C 415.52442,362.2647 412.86673,361.1109 411.33895,359.74226 C 409.19051,357.81664 408.11629,355.46928 408.11629,352.70017 C 408.11629,350.91779 408.62158,349.25075 409.63213,347.69908 C 410.64269,346.14746 412.09887,344.96582 414.00062,344.15415 C 415.90238,343.34255 418.19802,342.93675 420.88755,342.9367 C 425.27991,342.93675 428.58611,343.89957 430.80618,345.82517 C 433.0262,347.75084 434.19193,350.32099 434.30335,353.53566 L 427.2374,353.84599 C 426.935,352.0477 426.28649,350.75466 425.29187,349.96688 C 424.2972,349.17915 422.80522,348.78526 420.81595,348.78524 C 418.76298,348.78526 417.15564,349.20699 415.99391,350.05042 C 415.24591,350.59155 414.87193,351.31564 414.87193,352.22273 C 414.87193,353.0503 415.22204,353.75848 415.92229,354.3473 C 416.81349,355.0953 418.97782,355.8751 422.41533,356.6867 C 425.85282,357.49837 428.39513,358.33784 430.04229,359.20515 C 431.6894,360.0725 432.97847,361.25813 433.90949,362.76202 C 434.84044,364.26593 435.30593,366.12393 435.30598,368.33602 C 435.30593,370.34124 434.74893,372.21913 433.63495,373.9697 C 432.52093,375.72028 430.9454,377.02128 428.9084,377.87268 C 426.87133,378.7241 424.333,379.14982 421.29338,379.14982 C 416.86918,379.14982 413.47147,378.12733 411.10024,376.08233 C 408.729,374.03733 407.31262,371.05737 406.85111,367.14244 L 406.85111,367.14244 z"
         style="font-size:22px;font-style:normal;font-variant:normal;font-weight:bold;font-stretch:normal;text-align:start;line-height:100%;writing-mode:lr-tb;text-anchor:start;fill:#ffffff;fill-opacity:1;stroke:none;stroke-width:1px;stroke-linecap:butt;stroke-linejoin:miter;stroke-opacity:1;font-family:Arial;-inkscape-font-specification:Arial Bold" />
      <path
         id="flowRoot3356"
         d="M 470.24071,373.27742 L 470.24071,364.18237 L 461.07404,364.18237 L 461.07404,357.90415 L 470.24071,357.90415 L 470.24071,348.8091 L 476.35182,348.8091 L 476.35182,357.90415 L 485.54236,357.90415 L 485.54236,364.18237 L 476.35182,364.18237 L 476.35182,373.27742 L 470.24071,373.27742 z"
         style="font-size:22px;font-style:normal;font-variant:normal;font-weight:bold;font-stretch:normal;text-align:start;line-height:100%;writing-mode:lr-tb;text-anchor:start;fill:#ffffff;fill-opacity:1;stroke:none;stroke-width:1px;stroke-linecap:butt;stroke-linejoin:miter;stroke-opacity:1;font-family:Arial;-inkscape-font-specification:Arial Bold" />
      <path
         id="flowRoot3366"
         d="M 243.02901,364.39722 L 243.02901,357.6893 L 270.55785,357.6893 L 270.55785,364.39722 L 243.02901,364.39722 z"
         style="font-size:22px;font-style:normal;font-variant:normal;font-weight:bold;font-stretch:normal;text-align:start;line-height:100%;writing-mode:lr-tb;text-anchor:start;fill:#ffffff;fill-opacity:1;stroke:none;stroke-width:1px;stroke-linecap:butt;stroke-linejoin:miter;stroke-opacity:1;font-family:Arial;-inkscape-font-specification:Arial Bold" />
      <path
         id="rect3336"
         d="M 450.85353,248.37488 L 439.89198,243.03805 L 417.71052,288.59752 L 428.67207,293.93435 L 450.85353,248.37488 z"
         style="fill:#ffffff;fill-opacity:1;fill-rule:evenodd;stroke:#000000;stroke-width:1.8555125;stroke-linecap:square;stroke-linejoin:miter;stroke-miterlimit:4;stroke-dashoffset:0;stroke-opacity:1" />
      <path
         id="rect3338"
         d="M 277.71789,248.37493 L 288.67942,243.03811 L 310.86089,288.59758 L 299.89936,293.93441 L 277.71789,248.37493 z"
         style="fill:#ffffff;fill-opacity:1;fill-rule:evenodd;stroke:#000000;stroke-width:1.8555125;stroke-linecap:square;stroke-linejoin:miter;stroke-miterlimit:4;stroke-dashoffset:0;stroke-opacity:1" />
      <path
         id="rect3330"
         d="M 354.45909,232.75819 L 374.11227,232.75819 L 374.11227,277.84491 L 354.45909,277.84491 L 354.45909,232.75819 z"
         style="fill:#ffffff;fill-opacity:1;fill-rule:evenodd;stroke:#000000;stroke-width:2.22222209;stroke-linecap:square;stroke-linejoin:miter;stroke-miterlimit:4;stroke-dashoffset:0;stroke-opacity:1" />
      <path
         id="path5655"
         d="M 359.87595,243.26539 L 350.5704,451.45984 L 378.00095,451.52928 L 368.62595,243.26539 L 359.87595,243.26539 z"
         style="fill:#c83e30;fill-opacity:1;fill-rule:evenodd;stroke:none;stroke-width:1;stroke-linecap:square;stroke-linejoin:miter;stroke-miterlimit:4;stroke-dasharray:none;stroke-dashoffset:0;stroke-opacity:1" />
      <path
         id="flowRoot5701"
         d="M 541.47349,322.36862 L 534.98044,323.08477 C 534.82129,321.74799 534.40751,320.7613 533.73911,320.1247 C 533.07071,319.48815 532.20338,319.16986 531.13713,319.16984 C 529.72073,319.16986 528.52318,319.80644 527.54446,321.07955 C 526.56571,322.35273 525.94904,325.00246 525.69442,329.02877 C 527.36542,327.05542 529.44222,326.06873 531.92489,326.0687 C 534.7258,326.06873 537.12489,327.13499 539.12215,329.26748 C 541.11938,331.40004 542.118,334.15322 542.11802,337.52704 C 542.118,341.10777 541.06764,343.9803 538.96698,346.14466 C 536.86626,348.30902 534.1688,349.39119 530.87453,349.39119 C 527.34153,349.39119 524.43718,348.01857 522.16142,345.27335 C 519.88566,342.52813 518.7478,338.02835 518.7478,331.77399 C 518.7478,325.36055 519.93342,320.73742 522.30466,317.90464 C 524.67589,315.07193 527.75531,313.65555 531.54293,313.6555 C 534.20062,313.65555 536.40078,314.39955 538.14342,315.8875 C 539.88602,317.37553 540.99604,319.5359 541.47349,322.36862 L 541.47349,322.36862 z M 526.26733,337.00186 C 526.26733,339.18215 526.76862,340.86508 527.77124,342.0507 C 528.77382,343.23633 529.91966,343.82913 531.20873,343.82913 C 532.45004,343.82913 533.48446,343.34375 534.31204,342.37295 C 535.13955,341.40219 535.55333,339.81075 535.55335,337.59866 C 535.55333,335.3229 535.10773,333.65588 534.21655,332.59757 C 533.32533,331.53928 532.21133,331.01013 530.87453,331.0101 C 529.58546,331.01013 528.49533,331.51542 527.60413,332.52595 C 526.71293,333.53653 526.26733,335.0285 526.26733,337.00186 L 526.26733,337.00186 z M 557.30031,313.6555 C 560.69006,313.65555 563.3398,314.86504 565.24953,317.28399 C 567.52526,320.14859 568.66313,324.89902 568.66315,331.53528 C 568.66313,338.15566 567.51731,342.91406 565.22566,345.81046 C 563.33184,348.19762 560.69006,349.39119 557.30031,349.39119 C 553.89464,349.39119 551.14942,348.08224 549.06464,345.46433 C 546.97986,342.84642 545.93746,338.17955 545.93746,331.46368 C 545.93746,324.87515 547.08331,320.13268 549.37498,317.23624 C 551.26878,314.84913 553.91055,313.65555 557.30031,313.6555 L 557.30031,313.6555 z M 557.30031,319.21757 C 556.48866,319.21762 555.76458,319.47622 555.128,319.99339 C 554.49142,320.51064 553.99809,321.43766 553.64798,322.77444 C 553.18644,324.50913 552.95569,327.42939 552.95571,331.53528 C 552.95569,335.64119 553.16258,338.46202 553.57635,339.99775 C 553.99013,341.53348 554.51131,342.55597 555.13995,343.06524 C 555.76855,343.5745 556.48866,343.82913 557.30031,343.82913 C 558.11193,343.82913 558.83604,343.57053 559.47262,343.0533 C 560.10918,342.53608 560.60253,341.60908 560.95266,340.27226 C 561.41415,338.55353 561.64491,335.64119 561.64493,331.53528 C 561.64491,327.42939 561.43802,324.60859 561.02426,323.07284 C 560.61049,321.53713 560.08929,320.51064 559.46069,319.99339 C 558.83206,319.47622 558.11193,319.21762 557.30031,319.21757 L 557.30031,319.21757 z"
         style="font-size:22px;font-style:normal;font-variant:normal;font-weight:bold;font-stretch:normal;text-align:start;line-height:100%;writing-mode:lr-tb;text-anchor:start;fill:#ffffff;fill-opacity:1;stroke:none;stroke-width:1px;stroke-linecap:butt;stroke-linejoin:miter;stroke-opacity:1;font-family:Arial;-inkscape-font-specification:Arial Bold" />
      <path
         id="flowRoot5711"
         d="M 191.63007,322.36862 L 185.13702,323.08477 C 184.97787,321.74799 184.56409,320.7613 183.89569,320.1247 C 183.22729,319.48815 182.35996,319.16986 181.29371,319.16984 C 179.87731,319.16986 178.67976,319.80644 177.70104,321.07955 C 176.72229,322.35273 176.10562,325.00246 175.851,329.02877 C 177.522,327.05542 179.5988,326.06873 182.08147,326.0687 C 184.88238,326.06873 187.28147,327.13499 189.27873,329.26748 C 191.27596,331.40004 192.27458,334.15322 192.2746,337.52704 C 192.27458,341.10777 191.22422,343.9803 189.12356,346.14466 C 187.02284,348.30902 184.32538,349.39119 181.03111,349.39119 C 177.49811,349.39119 174.59376,348.01857 172.318,345.27335 C 170.04224,342.52813 168.90438,338.02835 168.90438,331.77399 C 168.90438,325.36055 170.09,320.73742 172.46124,317.90464 C 174.83247,315.07193 177.91189,313.65555 181.69951,313.6555 C 184.3572,313.65555 186.55736,314.39955 188.3,315.8875 C 190.0426,317.37553 191.15262,319.5359 191.63007,322.36862 L 191.63007,322.36862 z M 176.42391,337.00186 C 176.42391,339.18215 176.9252,340.86508 177.92782,342.0507 C 178.9304,343.23633 180.07624,343.82913 181.36531,343.82913 C 182.60662,343.82913 183.64104,343.34375 184.46862,342.37295 C 185.29613,341.40219 185.70991,339.81075 185.70993,337.59866 C 185.70991,335.3229 185.26431,333.65588 184.37313,332.59757 C 183.48191,331.53928 182.36791,331.01013 181.03111,331.0101 C 179.74204,331.01013 178.65191,331.51542 177.76071,332.52595 C 176.86951,333.53653 176.42391,335.0285 176.42391,337.00186 L 176.42391,337.00186 z M 207.45689,313.6555 C 210.84664,313.65555 213.49638,314.86504 215.40611,317.28399 C 217.68184,320.14859 218.81971,324.89902 218.81973,331.53528 C 218.81971,338.15566 217.67389,342.91406 215.38224,345.81046 C 213.48842,348.19762 210.84664,349.39119 207.45689,349.39119 C 204.05122,349.39119 201.306,348.08224 199.22122,345.46433 C 197.13644,342.84642 196.09404,338.17955 196.09404,331.46368 C 196.09404,324.87515 197.23989,320.13268 199.53156,317.23624 C 201.42536,314.84913 204.06713,313.65555 207.45689,313.6555 L 207.45689,313.6555 z M 207.45689,319.21757 C 206.64524,319.21762 205.92116,319.47622 205.28458,319.99339 C 204.648,320.51064 204.15467,321.43766 203.80456,322.77444 C 203.34302,324.50913 203.11227,327.42939 203.11229,331.53528 C 203.11227,335.64119 203.31916,338.46202 203.73293,339.99775 C 204.14671,341.53348 204.66789,342.55597 205.29653,343.06524 C 205.92513,343.5745 206.64524,343.82913 207.45689,343.82913 C 208.26851,343.82913 208.99262,343.57053 209.6292,343.0533 C 210.26576,342.53608 210.75911,341.60908 211.10924,340.27226 C 211.57073,338.55353 211.80149,335.64119 211.80151,331.53528 C 211.80149,327.42939 211.5946,324.60859 211.18084,323.07284 C 210.76707,321.53713 210.24587,320.51064 209.61727,319.99339 C 208.98864,319.47622 208.26851,319.21762 207.45689,319.21757 L 207.45689,319.21757 z"
         style="font-size:22px;font-style:normal;font-variant:normal;font-weight:bold;font-stretch:normal;text-align:start;line-height:100%;writing-mode:lr-tb;text-anchor:start;fill:#ffffff;fill-opacity:1;stroke:none;stroke-width:1px;stroke-linecap:butt;stroke-linejoin:miter;stroke-opacity:1;font-family:Arial;-inkscape-font-specification:Arial Bold" />
      <path
         id="flowRoot5681"
         d="M 364.28569,181.88037 C 367.67542,181.88042 370.32515,183.08991 372.23491,185.50886 C 374.51064,188.37346 375.64851,193.12388 375.64853,199.76015 C 375.64851,206.38053 374.50267,211.13893 372.21104,214.03533 C 370.3172,216.42248 367.67542,217.61606 364.28569,217.61606 C 360.88,217.61606 358.13478,216.30711 356.05,213.68919 C 353.96522,211.07128 352.92284,206.40442 352.92284,199.68855 C 352.92284,193.10002 354.06867,188.35755 356.36033,185.46111 C 358.25413,183.07399 360.89591,181.88042 364.28569,181.88037 L 364.28569,181.88037 z M 364.28569,187.44244 C 363.47404,187.44248 362.74993,187.70108 362.11338,188.21826 C 361.4768,188.73551 360.98344,189.66253 360.63333,190.99931 C 360.17182,192.73399 359.94107,195.65426 359.94107,199.76015 C 359.94107,203.86606 360.14795,206.68688 360.56173,208.22262 C 360.97549,209.75835 361.49669,210.78084 362.12531,211.29011 C 362.75391,211.79937 363.47404,212.05399 364.28569,212.05399 C 365.09731,212.05399 365.8214,211.79539 366.458,211.27817 C 367.09455,210.76095 367.58789,209.83395 367.93802,208.49713 C 368.39953,206.77839 368.63029,203.86606 368.63031,199.76015 C 368.63029,195.65426 368.4234,192.83346 368.00964,191.29771 C 367.59587,189.76199 367.07467,188.73551 366.44607,188.21826 C 365.81742,187.70108 365.09731,187.44248 364.28569,187.44244 L 364.28569,187.44244 z"
         style="font-size:22px;font-style:normal;font-variant:normal;font-weight:bold;font-stretch:normal;text-align:start;line-height:100%;writing-mode:lr-tb;text-anchor:start;fill:#ffffff;fill-opacity:1;stroke:none;stroke-width:1px;stroke-linecap:butt;stroke-linejoin:miter;stroke-opacity:1;font-family:Arial;-inkscape-font-specification:Arial Bold" />
      <path
         id="flowRoot5691"
         d="M 440.77802,228.6085 L 447.27106,227.82074 C 447.47795,229.47585 448.03495,230.74103 448.94208,231.61632 C 449.84917,232.49161 450.94726,232.92925 452.23635,232.92925 C 453.62088,232.92925 454.78662,232.40408 455.73353,231.35372 C 456.68042,230.30339 457.15386,228.88701 457.15388,227.10459 C 457.15386,225.4177 456.70031,224.08088 455.79319,223.09419 C 454.88606,222.1075 453.78002,221.61417 452.47506,221.61414 C 451.61568,221.61417 450.58919,221.78125 449.39564,222.11545 L 450.13566,216.64888 C 451.94988,216.69663 453.33442,216.30274 454.28931,215.46723 C 455.24415,214.63174 455.72157,213.52172 455.72159,212.13714 C 455.72157,210.95952 455.37146,210.02057 454.67124,209.3203 C 453.97099,208.6201 453.04002,208.26999 451.87828,208.26997 C 450.73244,208.26999 449.75371,208.66785 448.94208,209.46354 C 448.13044,210.25928 447.63708,211.42103 447.46204,212.94879 L 441.27931,211.89843 C 441.70899,209.78185 442.35751,208.09097 443.22484,206.82574 C 444.09217,205.56057 445.30166,204.56592 446.85333,203.84179 C 448.40495,203.11772 450.14359,202.75568 452.06924,202.75563 C 455.36351,202.75568 458.00528,203.80601 459.99459,205.90668 C 461.63375,207.62545 462.45333,209.56701 462.45335,211.73134 C 462.45333,214.80283 460.77437,217.25363 457.41646,219.08377 C 459.42166,219.51348 461.02502,220.47628 462.22657,221.97221 C 463.42808,223.46819 464.02886,225.27445 464.02888,227.39105 C 464.02886,230.46254 462.90691,233.08043 460.66299,235.24479 C 458.41906,237.40914 455.62608,238.49132 452.28408,238.49132 C 449.11713,238.49132 446.49126,237.58021 444.40648,235.75803 C 442.32171,233.93583 441.11222,231.55265 440.77802,228.6085 L 440.77802,228.6085 z M 479.56924,202.75563 C 482.95899,202.75568 485.60873,203.96517 487.51846,206.38412 C 489.79419,209.24872 490.93206,213.99914 490.93208,220.63541 C 490.93206,227.25579 489.78624,232.01419 487.49459,234.91059 C 485.60077,237.29774 482.95899,238.49132 479.56924,238.49132 C 476.16357,238.49132 473.41835,237.18237 471.33357,234.56445 C 469.24879,231.94654 468.20639,227.27968 468.20639,220.56381 C 468.20639,213.97528 469.35224,209.23281 471.64391,206.33637 C 473.53771,203.94925 476.17948,202.75568 479.56924,202.75563 L 479.56924,202.75563 z M 479.56924,208.3177 C 478.75759,208.31774 478.03351,208.57634 477.39693,209.09352 C 476.76035,209.61077 476.26702,210.53779 475.91691,211.87457 C 475.45537,213.60925 475.22462,216.52952 475.22464,220.63541 C 475.22462,224.74132 475.43151,227.56214 475.84528,229.09788 C 476.25906,230.63361 476.78024,231.6561 477.40888,232.16537 C 478.03748,232.67463 478.75759,232.92925 479.56924,232.92925 C 480.38086,232.92925 481.10497,232.67065 481.74155,232.15343 C 482.37811,231.63621 482.87146,230.70921 483.22159,229.37239 C 483.68308,227.65365 483.91384,224.74132 483.91386,220.63541 C 483.91384,216.52952 483.70695,213.70872 483.29319,212.17297 C 482.87942,210.63725 482.35822,209.61077 481.72962,209.09352 C 481.10099,208.57634 480.38086,208.31774 479.56924,208.3177 L 479.56924,208.3177 z"
         style="font-size:22px;font-style:normal;font-variant:normal;font-weight:bold;font-stretch:normal;text-align:start;line-height:100%;writing-mode:lr-tb;text-anchor:start;fill:#ffffff;fill-opacity:1;stroke:none;stroke-width:1px;stroke-linecap:butt;stroke-linejoin:miter;stroke-opacity:1;font-family:Arial;-inkscape-font-specification:Arial Bold" />
      <path
         id="flowRoot5719"
         d="M 237.63928,228.6085 L 244.13233,227.82074 C 244.33922,229.47585 244.89622,230.74103 245.80335,231.61632 C 246.71044,232.49161 247.80853,232.92925 249.09762,232.92925 C 250.48215,232.92925 251.64788,232.40408 252.59479,231.35372 C 253.54168,230.30339 254.01513,228.88701 254.01515,227.10459 C 254.01513,225.4177 253.56157,224.08088 252.65446,223.09419 C 251.74733,222.1075 250.64128,221.61417 249.33633,221.61414 C 248.47695,221.61417 247.45046,221.78125 246.25691,222.11545 L 246.99693,216.64888 C 248.81115,216.69663 250.19568,216.30274 251.15057,215.46723 C 252.10542,214.63174 252.58284,213.52172 252.58286,212.13714 C 252.58284,210.95952 252.23273,210.02057 251.53251,209.3203 C 250.83226,208.6201 249.90128,208.26999 248.73955,208.26997 C 247.59371,208.26999 246.61497,208.66785 245.80335,209.46354 C 244.99171,210.25928 244.49835,211.42103 244.32331,212.94879 L 238.14057,211.89843 C 238.57026,209.78185 239.21877,208.09097 240.08611,206.82574 C 240.95344,205.56057 242.16293,204.56592 243.71459,203.84179 C 245.26622,203.11772 247.00486,202.75568 248.93051,202.75563 C 252.22477,202.75568 254.86655,203.80601 256.85586,205.90668 C 258.49502,207.62545 259.31459,209.56701 259.31462,211.73134 C 259.31459,214.80283 257.63564,217.25363 254.27773,219.08377 C 256.28293,219.51348 257.88628,220.47628 259.08784,221.97221 C 260.28935,223.46819 260.89013,225.27445 260.89015,227.39105 C 260.89013,230.46254 259.76817,233.08043 257.52426,235.24479 C 255.28033,237.40914 252.48735,238.49132 249.14535,238.49132 C 245.97839,238.49132 243.35253,237.58021 241.26775,235.75803 C 239.18297,233.93583 237.97348,231.55265 237.63928,228.6085 L 237.63928,228.6085 z M 276.4305,202.75563 C 279.82026,202.75568 282.46999,203.96517 284.37973,206.38412 C 286.65546,209.24872 287.79333,213.99914 287.79335,220.63541 C 287.79333,227.25579 286.6475,232.01419 284.35586,234.91059 C 282.46204,237.29774 279.82026,238.49132 276.4305,238.49132 C 273.02484,238.49132 270.27962,237.18237 268.19484,234.56445 C 266.11006,231.94654 265.06766,227.27968 265.06766,220.56381 C 265.06766,213.97528 266.21351,209.23281 268.50517,206.33637 C 270.39897,203.94925 273.04075,202.75568 276.4305,202.75563 L 276.4305,202.75563 z M 276.4305,208.3177 C 275.61886,208.31774 274.89477,208.57634 274.25819,209.09352 C 273.62162,209.61077 273.12828,210.53779 272.77817,211.87457 C 272.31664,213.60925 272.08588,216.52952 272.0859,220.63541 C 272.08588,224.74132 272.29277,227.56214 272.70655,229.09788 C 273.12033,230.63361 273.6415,231.6561 274.27015,232.16537 C 274.89875,232.67463 275.61886,232.92925 276.4305,232.92925 C 277.24213,232.92925 277.96624,232.67065 278.60282,232.15343 C 279.23937,231.63621 279.73273,230.70921 280.08286,229.37239 C 280.54435,227.65365 280.7751,224.74132 280.77513,220.63541 C 280.7751,216.52952 280.56822,213.70872 280.15446,212.17297 C 279.74068,210.63725 279.21948,209.61077 278.59088,209.09352 C 277.96226,208.57634 277.24213,208.31774 276.4305,208.3177 L 276.4305,208.3177 z"
         style="font-size:22px;font-style:normal;font-variant:normal;font-weight:bold;font-stretch:normal;text-align:start;line-height:100%;writing-mode:lr-tb;text-anchor:start;fill:#ffffff;fill-opacity:1;stroke:none;stroke-width:1px;stroke-linecap:butt;stroke-linejoin:miter;stroke-opacity:1;font-family:Arial;-inkscape-font-specification:Arial Bold" />
      <path
         id="rect5735"
         d="M 404.46475,241.95609 L 413.18033,245.33145 L 404.15078,268.64684 L 395.4352,265.27149 L 404.46475,241.95609 z"
         style="fill:#ffffff;fill-opacity:1;fill-rule:evenodd;stroke:#000000;stroke-width:2.00879765;stroke-linecap:square;stroke-linejoin:miter;stroke-miterlimit:4;stroke-dashoffset:0;stroke-opacity:1" />
      <path
         id="rect5737"
         d="M 324.10649,241.9561 L 315.39091,245.33146 L 324.42046,268.64685 L 333.13604,265.27149 L 324.10649,241.9561 z"
         style="fill:#ffffff;fill-opacity:1;fill-rule:evenodd;stroke:#000000;stroke-width:2.00879765;stroke-linecap:square;stroke-linejoin:miter;stroke-miterlimit:4;stroke-dashoffset:0;stroke-opacity:1" />
      <path
         id="rect5773"
         d="M 257.21984,275.35496 L 250.17775,281.50015 L 266.61701,300.33873 L 273.65909,294.19354 L 257.21984,275.35496 z"
         style="fill:#ffffff;fill-opacity:1;fill-rule:evenodd;stroke:#000000;stroke-width:2.00879788;stroke-linecap:square;stroke-linejoin:miter;stroke-miterlimit:4;stroke-dashoffset:0;stroke-opacity:1" />
      <path
         id="rect5775"
         d="M 479.47854,275.35494 L 486.52063,281.50013 L 470.08138,300.3387 L 463.0393,294.19351 L 479.47854,275.35494 z"
         style="fill:#ffffff;fill-opacity:1;fill-rule:evenodd;stroke:#000000;stroke-width:2.00879788;stroke-linecap:square;stroke-linejoin:miter;stroke-miterlimit:4;stroke-dashoffset:0;stroke-opacity:1" />
      <path
         id="path4395"
         d="M 459.80199,214.84323 C 459.80199,229.94688 447.54395,242.20491 432.44031,242.20491 C 417.33666,242.20491 405.07863,229.94688 405.07863,214.84323 C 405.07863,199.73958 417.33666,187.48155 432.44031,187.48155 C 447.54395,187.48155 459.80199,199.73958 459.80199,214.84323 z"
         style="fill:#ca4136;fill-opacity:1;fill-rule:evenodd;stroke:#000000;stroke-width:1.63355076;stroke-linecap:butt;stroke-linejoin:miter;stroke-miterlimit:4;stroke-dashoffset:0;stroke-opacity:1;filter:url(#filter4419)"
         transform="matrix(0,1.1962562,-1.1962562,0,621.29326,-62.902243)" />
      <path
         id="path5769"
         d="M 368.15609,454.40716 C 368.15609,456.54361 366.42216,458.27755 364.2857,458.27755 C 362.14925,458.27755 360.41532,456.54361 360.41532,454.40716 C 360.41532,452.2707 362.14925,450.53677 364.2857,450.53677 C 366.42216,450.53677 368.15609,452.2707 368.15609,454.40716 z"
         style="fill:#4d4d4d;fill-opacity:1;fill-rule:evenodd;stroke:#000000;stroke-width:0.6592195;stroke-linecap:square;stroke-linejoin:miter;stroke-miterlimit:4;stroke-dashoffset:0;stroke-opacity:1" />
      <path
         id="path5838"
         d="M 398.29294,192.78748 C 398.29294,198.40684 394.44489,202.96749 389.70355,202.96749 C 384.96221,202.96749 381.11417,198.40684 381.11417,192.78748 C 381.11417,187.16811 384.96221,182.60746 389.70355,182.60746 C 394.44489,182.60746 398.29294,187.16811 398.29294,192.78748 z"
         style="opacity:0.83999999;fill:none;fill-opacity:1;fill-rule:evenodd;stroke:#000000;stroke-width:0.8756389;stroke-linecap:square;stroke-linejoin:miter;stroke-miterlimit:4;stroke-dashoffset:0;stroke-opacity:1;filter:url(#filter5890)"
         transform="matrix(2.7628389,0,0,2.3311451,-572.40972,4.9915967)" />
      <path
         transform="matrix(2.2222222,0,0,2.2222222,-266.67575,-210.53529)"
         id="path5840"
         style="fill:none;fill-rule:evenodd;stroke:url(#radialGradient3535);stroke-width:5.13141584;stroke-linecap:butt;stroke-linejoin:miter;stroke-opacity:1;filter:url(#filter5822)"
         d="M 346.92937,290.99554 L 346.92937,307.45268 M 355.15794,299.22411 L 338.7008,299.22411" />
      <path
         id="path5912"
         d="M 398.29294,192.78748 C 398.29294,198.40684 394.44489,202.96749 389.70355,202.96749 C 384.96221,202.96749 381.11417,198.40684 381.11417,192.78748 C 381.11417,187.16811 384.96221,182.60746 389.70355,182.60746 C 394.44489,182.60746 398.29294,187.16811 398.29294,192.78748 z"
         style="opacity:0.83999999;fill:none;fill-opacity:1;fill-rule:evenodd;stroke:#000000;stroke-width:0.8756389;stroke-linecap:square;stroke-linejoin:miter;stroke-miterlimit:4;stroke-dashoffset:0;stroke-opacity:1;filter:url(#filter5890)"
         transform="matrix(2.7628389,0,0,2.3311451,-852.39512,4.9915967)" />
      <path
         transform="matrix(2.2222222,0,0,2.2222222,-266.67575,-210.53529)"
         d="M 220.93594,290.99554 L 220.93594,307.45268 M 229.16451,299.22411 L 212.70737,299.22411"
         style="fill:none;fill-rule:evenodd;stroke:url(#radialGradient3537);stroke-width:5.13141584;stroke-linecap:butt;stroke-linejoin:miter;stroke-opacity:1;filter:url(#filter5822)"
         id="path5914" />
    </g>
  </g>
</svg>
